<mxfile modified="2019-11-12T13:41:37.777Z" host="www.draw.io" agent="Mozilla/5.0 (Windows NT 10.0; Win64; x64) AppleWebKit/537.36 (KHTML, like Gecko) Chrome/78.0.3904.97 Safari/537.36" etag="3KsoPBnZjRfgAy3VAwNy" version="12.2.4" type="github" pages="1">
  <diagram id="2f404044-711c-603c-8f00-f6bb4c023d3c" name="Page-1">
    <mxGraphModel dx="1422" dy="779" grid="1" gridSize="10" guides="1" tooltips="1" connect="1" arrows="1" fold="1" page="1" pageScale="1" pageWidth="827" pageHeight="1169" background="#ffffff" math="0" shadow="0">
      <root>
        <mxCell id="0"/>
        <mxCell id="1" parent="0"/>
        <mxCell id="63" value="" style="swimlane;shadow=0;strokeColor=#4277BB;fillColor=#ffffff;fontColor=none;align=right;startSize=0;collapsible=0;noLabel=1;strokeWidth=3;" parent="1" vertex="1">
          <mxGeometry x="37" y="110" width="1363" height="670" as="geometry"/>
        </mxCell>
        <mxCell id="98" value="" style="swimlane;shadow=0;labelBackgroundColor=#007FFF;strokeColor=#4277BB;fillColor=none;gradientColor=none;fontColor=#000000;align=right;collapsible=0;startSize=0;strokeWidth=3;" parent="63" vertex="1">
          <mxGeometry x="280" y="11" width="1010" height="639" as="geometry"/>
        </mxCell>
        <mxCell id="9f43Xtq0IxD5UAQ7lQIS-226" value="" style="swimlane;shadow=1;labelBackgroundColor=#007FFF;strokeColor=#4277BB;fillColor=none;gradientColor=none;fontColor=#000000;align=right;collapsible=0;startSize=0;strokeWidth=3;" parent="98" vertex="1">
          <mxGeometry x="10" y="227.5" width="420" height="193" as="geometry"/>
        </mxCell>
        <mxCell id="9f43Xtq0IxD5UAQ7lQIS-227" value="Storage" style="text;html=1;align=left;verticalAlign=middle;fontColor=#4277BB;shadow=0;dashed=0;strokeColor=none;fillColor=none;labelBackgroundColor=none;fontStyle=1;fontSize=14;spacingLeft=5;" parent="9f43Xtq0IxD5UAQ7lQIS-226" vertex="1">
          <mxGeometry x="9" y="7" width="150" height="20" as="geometry"/>
        </mxCell>
        <mxCell id="9f43Xtq0IxD5UAQ7lQIS-231" value="本地存儲&lt;br style=&quot;font-size: 11px&quot;&gt;(移動硬碟/桌面硬碟)" style="text;html=1;resizable=0;autosize=1;align=center;verticalAlign=middle;points=[];fillColor=none;strokeColor=none;rounded=0;fontFamily=Verdana;fontStyle=1;fontColor=#004C99;fontSize=11;" parent="9f43Xtq0IxD5UAQ7lQIS-226" vertex="1">
          <mxGeometry x="21" y="112.5" width="120" height="30" as="geometry"/>
        </mxCell>
        <mxCell id="9f43Xtq0IxD5UAQ7lQIS-225" value="" style="aspect=fixed;perimeter=ellipsePerimeter;html=1;align=center;shadow=0;dashed=0;fontColor=#4277BB;labelBackgroundColor=#ffffff;fontSize=12;spacingTop=3;image;image=img/lib/ibm/infrastructure/mobile_backend.svg;" parent="9f43Xtq0IxD5UAQ7lQIS-226" vertex="1">
          <mxGeometry x="59.5" y="68.5" width="43" height="43" as="geometry"/>
        </mxCell>
        <mxCell id="9f43Xtq0IxD5UAQ7lQIS-241" value="" style="shape=image;imageAspect=0;aspect=fixed;verticalLabelPosition=bottom;verticalAlign=top;shadow=1;fontFamily=Verdana;fontSize=12;fontColor=#004C99;image=https://img.shouji.com.cn/simg/20161020/2200047854.png;" parent="9f43Xtq0IxD5UAQ7lQIS-226" vertex="1">
          <mxGeometry x="218" y="60" width="60" height="60" as="geometry"/>
        </mxCell>
        <mxCell id="9f43Xtq0IxD5UAQ7lQIS-246" value="百度網盤" style="text;html=1;resizable=0;autosize=1;align=center;verticalAlign=middle;points=[];fillColor=none;strokeColor=none;rounded=0;fontFamily=Verdana;fontStyle=1;fontColor=#004C99;fontSize=11;" parent="9f43Xtq0IxD5UAQ7lQIS-226" vertex="1">
          <mxGeometry x="212" y="122" width="70" height="20" as="geometry"/>
        </mxCell>
        <mxCell id="9f43Xtq0IxD5UAQ7lQIS-247" value="" style="shape=image;imageAspect=0;aspect=fixed;verticalLabelPosition=bottom;verticalAlign=top;shadow=0;fontFamily=Verdana;fontSize=11;fontColor=#004C99;image=https://vignette.wikia.nocookie.net/logopedia/images/d/d3/Microsoft_Office_OneDrive_%282018%E2%80%93present%29.svg/revision/latest/scale-to-width-down/200?cb=20190628041415;" parent="9f43Xtq0IxD5UAQ7lQIS-226" vertex="1">
          <mxGeometry x="310" y="62.5" width="55" height="55" as="geometry"/>
        </mxCell>
        <mxCell id="9f43Xtq0IxD5UAQ7lQIS-245" value="Onedrive" style="text;html=1;resizable=0;autosize=1;align=center;verticalAlign=middle;points=[];fillColor=none;strokeColor=none;rounded=0;fontFamily=Verdana;fontStyle=1;fontColor=#004C99;fontSize=11;" parent="9f43Xtq0IxD5UAQ7lQIS-226" vertex="1">
          <mxGeometry x="302.5" y="121" width="70" height="20" as="geometry"/>
        </mxCell>
        <mxCell id="9f43Xtq0IxD5UAQ7lQIS-248" value="" style="shape=image;imageAspect=0;aspect=fixed;verticalLabelPosition=bottom;verticalAlign=top;shadow=0;fontFamily=Verdana;fontSize=11;fontColor=#004C99;image=https://www.charbase.com/images/glyph/43;" parent="9f43Xtq0IxD5UAQ7lQIS-226" vertex="1">
          <mxGeometry x="127" y="68.5" width="40" height="40" as="geometry"/>
        </mxCell>
        <mxCell id="9f43Xtq0IxD5UAQ7lQIS-243" value="云存儲" style="text;html=1;align=left;verticalAlign=middle;fontColor=#4277BB;shadow=0;dashed=0;strokeColor=none;fillColor=none;labelBackgroundColor=none;fontStyle=1;fontSize=10;spacingLeft=5;" parent="9f43Xtq0IxD5UAQ7lQIS-226" vertex="1">
          <mxGeometry x="188" y="45.5" width="150" height="20" as="geometry"/>
        </mxCell>
        <mxCell id="9f43Xtq0IxD5UAQ7lQIS-242" value="" style="swimlane;shadow=0;labelBackgroundColor=#007FFF;strokeColor=#4277BB;fillColor=none;gradientColor=none;fontColor=#000000;align=right;collapsible=0;startSize=0;strokeWidth=2;" parent="9f43Xtq0IxD5UAQ7lQIS-226" vertex="1">
          <mxGeometry x="183" y="41" width="220" height="119" as="geometry"/>
        </mxCell>
        <mxCell id="9f43Xtq0IxD5UAQ7lQIS-235" value="" style="swimlane;shadow=1;labelBackgroundColor=#007FFF;strokeColor=#4277BB;fillColor=#ffffff;gradientColor=none;fontColor=#000000;align=right;collapsible=0;startSize=0;strokeWidth=3;" parent="98" vertex="1">
          <mxGeometry x="440" y="217" width="550" height="263" as="geometry"/>
        </mxCell>
        <mxCell id="9f43Xtq0IxD5UAQ7lQIS-236" value="學習+複習" style="text;html=1;align=left;verticalAlign=middle;fontColor=#4277BB;shadow=0;dashed=0;strokeColor=none;fillColor=none;labelBackgroundColor=none;fontStyle=1;fontSize=14;spacingLeft=5;" parent="9f43Xtq0IxD5UAQ7lQIS-235" vertex="1">
          <mxGeometry x="9" y="7" width="150" height="20" as="geometry"/>
        </mxCell>
        <mxCell id="9f43Xtq0IxD5UAQ7lQIS-250" value="Anki" style="text;html=1;resizable=0;autosize=1;align=center;verticalAlign=middle;points=[];fillColor=none;strokeColor=none;rounded=0;fontFamily=Verdana;fontStyle=1;fontColor=#004C99;fontSize=11;" parent="9f43Xtq0IxD5UAQ7lQIS-235" vertex="1">
          <mxGeometry x="53.5" y="115.5" width="40" height="20" as="geometry"/>
        </mxCell>
        <mxCell id="9f43Xtq0IxD5UAQ7lQIS-252" value="Quizlet" style="text;html=1;resizable=0;autosize=1;align=center;verticalAlign=middle;points=[];fillColor=none;strokeColor=none;rounded=0;fontFamily=Verdana;fontStyle=1;fontColor=#004C99;fontSize=11;" parent="9f43Xtq0IxD5UAQ7lQIS-235" vertex="1">
          <mxGeometry x="144.5" y="114.5" width="50" height="20" as="geometry"/>
        </mxCell>
        <mxCell id="9f43Xtq0IxD5UAQ7lQIS-253" value="" style="shape=image;imageAspect=0;aspect=fixed;verticalLabelPosition=bottom;verticalAlign=top;shadow=0;strokeWidth=2;fontFamily=Verdana;fontSize=11;fontColor=#004C99;image=https://tmcctech4ed.files.wordpress.com/2015/11/anki-logo.png?w=300;" parent="9f43Xtq0IxD5UAQ7lQIS-235" vertex="1">
          <mxGeometry x="43.5" y="45.5" width="60" height="60" as="geometry"/>
        </mxCell>
        <mxCell id="9f43Xtq0IxD5UAQ7lQIS-254" value="" style="shape=image;imageAspect=0;aspect=fixed;verticalLabelPosition=bottom;verticalAlign=top;shadow=0;strokeWidth=2;fontFamily=Verdana;fontSize=11;fontColor=#004C99;image=https://blog.studentlifenetwork.com/wp-content/uploads/2018/04/AppLogo-Quizlet.png;" parent="9f43Xtq0IxD5UAQ7lQIS-235" vertex="1">
          <mxGeometry x="142" y="48" width="55" height="55" as="geometry"/>
        </mxCell>
        <mxCell id="9f43Xtq0IxD5UAQ7lQIS-256" value="Lynda.com" style="text;html=1;resizable=0;autosize=1;align=center;verticalAlign=middle;points=[];fillColor=none;strokeColor=none;rounded=0;fontFamily=Verdana;fontStyle=1;fontColor=#004C99;fontSize=11;" parent="9f43Xtq0IxD5UAQ7lQIS-235" vertex="1">
          <mxGeometry x="34.5" y="217.5" width="80" height="20" as="geometry"/>
        </mxCell>
        <mxCell id="9f43Xtq0IxD5UAQ7lQIS-257" value="" style="shape=image;imageAspect=0;aspect=fixed;verticalLabelPosition=bottom;verticalAlign=top;shadow=0;strokeWidth=2;fillColor=#ffffff;fontFamily=Verdana;fontSize=11;fontColor=#004C99;image=https://www.kinsmanlibrary.org/sites/default/files/images/Lynda_Featured_Image_opt.png;" parent="9f43Xtq0IxD5UAQ7lQIS-235" vertex="1">
          <mxGeometry x="39.5" y="152" width="70" height="70" as="geometry"/>
        </mxCell>
        <mxCell id="165" value="" style="swimlane;shadow=1;labelBackgroundColor=#007FFF;strokeColor=#4277BB;fillColor=none;gradientColor=none;fontColor=#000000;align=right;collapsible=0;startSize=0;strokeWidth=3;swimlaneFillColor=#ffffff;" parent="98" vertex="1">
          <mxGeometry x="436.5" y="43" width="558" height="146" as="geometry"/>
        </mxCell>
        <mxCell id="182" value="信息中心" style="text;html=1;align=left;verticalAlign=middle;fontColor=#4277BB;shadow=0;dashed=0;strokeColor=none;fillColor=none;labelBackgroundColor=none;fontStyle=1;fontSize=14;spacingLeft=5;" parent="165" vertex="1">
          <mxGeometry x="10" y="7" width="150" height="20" as="geometry"/>
        </mxCell>
        <mxCell id="9f43Xtq0IxD5UAQ7lQIS-214" value="" style="shape=image;imageAspect=0;aspect=fixed;verticalLabelPosition=bottom;verticalAlign=top;shadow=1;fontFamily=Verdana;fontSize=12;fontColor=#004C99;image=https://pageflows.com/media/logos/logo_XaSXsd3.jpg;" parent="165" vertex="1">
          <mxGeometry x="54" y="29" width="74" height="74" as="geometry"/>
        </mxCell>
        <mxCell id="9f43Xtq0IxD5UAQ7lQIS-215" value="Notion" style="text;html=1;resizable=0;autosize=1;align=center;verticalAlign=middle;points=[];fillColor=none;strokeColor=none;rounded=0;fontFamily=Verdana;fontStyle=1;fontColor=#004C99;fontSize=14;" parent="165" vertex="1">
          <mxGeometry x="61" y="99" width="60" height="20" as="geometry"/>
        </mxCell>
        <mxCell id="9f43Xtq0IxD5UAQ7lQIS-216" value="" style="shape=image;imageAspect=0;aspect=fixed;verticalLabelPosition=bottom;verticalAlign=top;shadow=1;fontFamily=Verdana;fontSize=12;fontColor=#004C99;image=http://logok.org/wp-content/uploads/2015/02/Evernote-logo-2018-640x512.png;" parent="165" vertex="1">
          <mxGeometry x="136" y="18" width="120" height="96" as="geometry"/>
        </mxCell>
        <mxCell id="9f43Xtq0IxD5UAQ7lQIS-219" value="Evernote" style="text;html=1;resizable=0;autosize=1;align=center;verticalAlign=middle;points=[];fillColor=none;strokeColor=none;rounded=0;fontFamily=Verdana;fontStyle=1;fontColor=#004C99;fontSize=14;" parent="165" vertex="1">
          <mxGeometry x="159.5" y="99" width="80" height="20" as="geometry"/>
        </mxCell>
        <mxCell id="9f43Xtq0IxD5UAQ7lQIS-220" value="" style="shape=image;imageAspect=0;aspect=fixed;verticalLabelPosition=bottom;verticalAlign=top;shadow=1;fontFamily=Verdana;fontSize=12;fontColor=#004C99;image=data:image/png,iVBORw0KGgoAAAANSUhEUgAAAOEAAADhCAMAAAAJbSJIAAAAeFBMVEX///84hP80gv8xgf8he/8sf/8mff8pfv/n7/8Zef/x9v/6/P/0+P9Jjf/e6f9blv9uof+50P/J2/9Bif+Wuf+/1P95p/9PkP+qxv/V4/+Crf+yy/+Ms/9lnP/b5//p8P+evv+iwf99qv/N3v9dmP+Zu/+90/9qnv/vUy9NAAAKLklEQVR4nO2d13qrMAyAgxchk0xo9ux5/zc8QAY22MZmGfr571WblCA8NCwpg4HFYrFYLBaLxWKxWCwWi8VisVgsFovFYukBs9/w8tzfR6bvoyGWW4iIi7FLyPRyNn039bOcIgicNwCj29D0HdXLMkBf8V5gtPtDk3U59zLyxUBy+CMybnLj95XR+wsy/k6JQL5krvZ+HDcrmXzJOKJdj/ecZUDk4r1l3M5M32k5NlPR+suvR7+HMi4K52dGxpPpO9Zjv0Lq4r1lPN5N37U60fhpypfIiIKl6TtXI9Qevw8ATRem776YvVNm/FIZnb1pCeSEleRLIM51bFoMISF0q8oX45J1Nw2dGsbvA+6goTO+gtrke8nYLUNnfK1nftJAdPwxLdeXSD4N+0VdRm/eCQU5vtQ/fh8iBbkxLt+zmfGjZDRqBEyeBDcpXyIjgaEpBTlZu43NTwYXricm5HuixsfvAzCgICdrglsS70XLkYDW5UtkbM+DHJmQL5ERtaIgRwdD8sUAtGpaeYwOyJx8CchpUnkYHb8vzSmP0cGDpqVLANhbN3A8d+7E+H3ApG4FOdp1ZPy+YM+v0buKxq9j8sXU50Ged6iD8sXU40Geb12VLwaQqt7V8GZa/xURGQEVQqzDbdflSyDk+aflc+K5GpSwc4ZbryfyxWC/xPh1eH/h4OmFyWe9Gr8EoqMaZ37Pxi/GU48AzPyu2WcqgNWfHr84v0pxCHsqH0APNWeqt/LN1XaZYS/XXySfYn5DpN/7KJ9DFI9u+mOfsRDFyFsP9XsCUczbGHba/xMCXBgqyRf5770cP+yq5aSMdl2MvxSDyVpJvkkn40vFKCdPb2A/56dykv/BM32vZYDeVjUS7JdNIDQJ9HzlSLffzgl8rQDvqJ5IfKg1RasVlA3shGXvpqiygf1ibPp+tVE1sD+se7YIVQ3sLxN2EYIIQ7euhKqBTfHE7AWCwFGt/WgfF6gZ2AyMNCieAON8fWA3wOQiMUAnI/6LS2aSfjToctq9/VViYA/325WHkOet/GtOSe6oSYooFVOtjqB+JAb2Yu65H6cBut4q40mtqIvsmFf2TqO5olpIDOxFbttw0YV6/UzNRpQNM146km8hMbBHD95yIqt0rm7SuQiOuf+fHDoQ05BV6y1d/v0BdP0OUzpKLm8jjvx+s+MIkMTAXoh9PnR4v2eXPgPEv9LwZjB2CjyZgb2RObVo/XrTI12lRLgX+7zy8jZAgSyH9CT32tHL+AnSv0hOpE4PEyYAWkkN7EKPASXLN1UWYC673D1o2wQoNLC3RRsECOK3Ub/nt1KGTalS0LIUG9g/xY88mafpr0UStmjmABUD+6iy/w3UZ+mLsNmSmDcYywzsN6fcEEKck5lEE32a3nFQLOFgfHWbVo+KEexDRhzibA+3bM0/eETaIv3NUbhuJOO6UTMHkoNaTjP7bwD8Jn/9mbI3R0aDLaXxFdOlG0yfxd5OMZ95xkxSsPre+5F16JeDdfoHpByeOzdzxB8Z2Mr52gtm0yOUYb5iLvkchGkYytUIgMyOtZs50PunUeizpocKHqhXGNnhdnBPRxve1D8gmvHzWs0crQh2xJaeRIh+NGNmdAPGP1Tbar4spd109OTTimDH+LSEHvNSQN/Vipm26gvxzWZajwlQogWGRMIH89yZt+K17ucMFjWYOaWqe5lZyuZa0lsNmEamGB3x1v+kymaOdgT7BaPwCX2JIaNHIpV/ppwsVKZUevwsb+aAEhHsFyE9MIA2x27MLhsH16iFqWKacpiUNHOUU0Q4sJ6Fm6qLBfMCDjNPA5WsyChVpYfhpax80cxhP498RAxZgzyJzJzpvUI58zTLWTcTDqNqRXXsjum4q+vpPNvn2okl76U3XnItuLCYma9hAigb2ALuQW7OYOSh7Kb3NnbudEBHNbuWx49qNAcjVQObz+yo+EGfdO8goyLLc1c5tNJIEeGinhoKP2UXG3p1wnL76YfCQ6uq/eZGGql36PskmUHE1USUNy/TNbCzjNcaqWkktdFY5YJXFSsVQyAwc/QN7AxXrKGUmNm4ZR8MulXrPRVHc/IyaqaI5Nk7Os4McOjdepwZeoyqbebRbMqZclXb52jGawFkt7Nl9ggA45JFfB9G7MEccaoVdwpi7sJZC52sPsolfgGXe9qmweR7MAcrFXYOhOcmEB0O/K3b8/MRyXnuaZQ3/D+Mng4iBJFttS4kgtoPgGK9s+RMXhfzJsx4yrlKwemPArPlpmIjGVHw8nuyGDr0egAQQUHIfLLiXYgY7rEpUoBoRd3Xxgdxf3eIXYLgv1/hxSZT3rKVn8I2Df8QAbi59TPchOvDOiyaMD53PwboaKilnyDfBePyHtCVP+UhqmYrl2PD7+2KvUq6eiiIZcPW+97f+b2xo4ddtVOLyAGKfNYWO8Gd+E+6pgWzFBzZY6RwcFkLouJHeWqGDoIV4FSIjWkwEjRPIU6dfSEXAhkrmzmFTARhOxfW/cmitISGO2xe+LY0JM8GVkjkyPJlbM7M2fN958jCbmgnF3TLBejRiJnzy/cAIwu7OW08vvA7kgKkc16rhmALj6zGZr9FgOOsvydOvWaO6EgZTZu3/EWd55Qr/ybDoSCL/osg+zFale001RV1D4SFFuJ4s5t6KPrx4L+LcF6fBRmsGJa3sHURdfjC+CL5r9kOfnUbgNgLuPbCRPD8qh7d6CLoMiQ5AhxtvcwuBThWyViQLQ+rRjRLIOgEAgRRtD33ztGRvW+BzjXlkp4ERz68aM5WkKEMMaVKf0V2U2AsrCA6PyNZo/8orvjzPtu/6BCHVA5/VeLO/dK0SC8zZs5DcrwAUPI0fh4CBVG7ha2N0PZIl85WXrNJRoPZP34sQb45t4bgBOEbYJDUebwexlzgARYr2NZY8JcQ9GIzZ1R4QgQE8lUOwdSJIN0LkjVdhqNB5LB07Xu6BC4yhqWSwEzH1vkoprQBThJ95h0lk9uaZ3x1C2WE6LG+3KTF07iVAFdJCtP2kP/eX4WTFyr2zzGGPG0vTYc48yV8bb8dR1JoCv+lb+PVKQGN/itGOe8EDdCYFHM/+xwqJ5+0yZnrPjKZrXTJ8Ut8899tpMWQ4z6y9Q1smQsGxi1sbfIuMishnW+dJtX1i6yLHJeOpfzQs7QbPkQJ7g9mGAntKjCFPFWTdQwyZ/IcqQqOCaPzy2aUdwC28hGl0Y3M6HbJUdJjk0mWf2e3jNi6wPIp8+bJNGWK3KLwZ7bcZfpXMPV0fSNrugCXoFzsVKOjePdQ6f5WsjinKwTFbrHXoy/d5nAvbKMJC5sbdJxdUbp5rplR71jJ56nX0aCMBkNpzjnps6b4cJKE9dGu+P97wAwKAhvA0y827iaTOTe2j0m//HopYf4QGCK/+4E1DcZrwCTRY+9ffwJPqmy2SRJ9nENPgkvvtSCf4Sa8Xva/pz81PS0Wi8VisVgsFovFYrFYLBaLxWKxWCyWP8l/wc2cM8CgHvYAAAAASUVORK5CYII=;" parent="165" vertex="1">
          <mxGeometry x="276" y="35" width="60" height="60" as="geometry"/>
        </mxCell>
        <mxCell id="9f43Xtq0IxD5UAQ7lQIS-218" value="Gitbook" style="text;html=1;resizable=0;autosize=1;align=center;verticalAlign=middle;points=[];fillColor=none;strokeColor=none;rounded=0;fontFamily=Verdana;fontStyle=1;fontColor=#004C99;fontSize=14;" parent="165" vertex="1">
          <mxGeometry x="271" y="99" width="70" height="20" as="geometry"/>
        </mxCell>
        <mxCell id="pUXuUXPaaBpJ3xzCIjC--197" value="时间戳日记" style="text;html=1;resizable=0;autosize=1;align=center;verticalAlign=middle;points=[];fillColor=none;strokeColor=none;rounded=0;fontFamily=Verdana;fontStyle=1;fontColor=#004C99;fontSize=14;" parent="165" vertex="1">
          <mxGeometry x="372.5" y="99.5" width="90" height="20" as="geometry"/>
        </mxCell>
        <mxCell id="pUXuUXPaaBpJ3xzCIjC--198" value="" style="shape=image;imageAspect=0;aspect=fixed;verticalLabelPosition=bottom;verticalAlign=top;image=data:image/png,iVBORw0KGgoAAAANSUhEUgAAALQAAAC0CAYAAAA9zQYyAAAABGdBTUEAALGPC/xhBQAAACBjSFJNAAB6JgAAgIQAAPoAAACA6AAAdTAAAOpgAAA6mAAAF3CculE8AAAABmJLR0QA/wD/AP+gvaeTAAAAB3RJTUUH4wYNASQQzLN1BAAAci5JREFUeNrt/Wd4XNd57g//1p4KYNB7JxpBAKxib2InRfXeJVtyiS05iXPikjfOOSfHsfO3nbjEtmzJVYXqohpJFTZQ7L2TIBrRewcG0/de74fBbAEgAAIkKJKy7uvCRWnPzK73XutZT7kf+AJf4At8gS/wBb7AF7jiEFf7BP7WsHLlSoTAqGkyWtNkNGCTUpqFEEJK6RVC9EopOhVFNEdECLfdLtm8eevVPu3rBl8QeghIKRFCsGbN6iAppUlKKU0mo9NoNPqklGzYsGnM+1y2bBmAUQiRBeIGKeVS4AYpZQYQjv9Z2IEaEEUg94A4JIQ8LQQ9gNy+vfBq35prHl8Qug99I2ewqmrpUpIJJAGJQDCgAa1CiDopZYWicB5o3bZt+0X3u3r1aiGljPB61SwhmA3yDilZAlgv8lMJlABvgngLOLVjx3btat+nax1/84TuI3KQqsrpUsqVIBcBN0hJ9IX3R7hBnhJCHBZCnJBSVgkhW0A4AJ8QwieE0KSUNk3TYkDECCHipJSTpJSzgVmAcYyn6AO2C8FvTCbDR4oifB99tOVq37ZrFn+zhP7d737HCy+8iM1mi9c07VEpeRjkVEZPOA9QAzQJgR0/8bwgNJChUhIPxAMxgDLcTjRNQ0oJgBBC/xv8NaBMCPFbg0F5E2jcuvULu3oo/E0S+vbb19LR4cBsNqRqmvxXKXkAiPysji+lRFVVLBYzCQmJREdHYzAo9PT0UFdXj91uR1GUoYjdIQQbhBDrjUbDLinp2LLli9G6P/7mCL1mzRq6ux1YreZkKeWPQD7IIHtWSjngr//IOQTJRg0pJZqmERISwsyZNzBnzhzS0tKw2WwoioLT6aKtrZVTp06xbdt22tvbhzqeD6gSQhwGdoL4OCJCnu/pEXLr1m1X+/ZedfxNEXrlyhWYTCbcbk+alPKHfSPzADJrmkZYWBh5eXlkZEwgPDycnh47DQ0NVFRUUFNTg6qqoyJ3wJQIvBTx8fHMmDGd+fPnM3HiROLi4jAYDBf8rquri5MnT7Fu3TpKS0v1/QzePdAmhCgRQjkrpVYEssRgMJSYTMbqyMhwV3t7l5BShmiaFimlDAUphVBabLbgdp9P1TZs2Hi1H8m442+G0H2LP4OmyVmaJv9vn9ssKPC5lBKr1crChQtZs2YNqakphISEYDab8fm8OBxOenp6aGxs4uzZs5w5c4ba2lp6enpwu90XHM9oNBITE0NycjJpaank5+eTlpZGTEwMUVFRCCFwOBwUFxdTUVGJ0WggISGB3NxcwsPD0TSNsrIyXn75Ffbs2YOqqsNemxDCK6XsAbqAbvzuP5/ftS0tgBkw9X3dBTQIwQEhxKbY2Ngzvb296saNnw9yf64JvXLlSgBUVVWEEElS8nUp5QNAFqAPjVJKbDYbd9xxB3fddSdRUVEoinKByRH4bm9vL3Z7L263C5/Ph8vloqurG7fbjdlsJjg4iODgYKzWIKxWC0FBQYSEhOijsd1uZ9++fWzbto2KikpcLhdCCMxmM/Hxcdx33/3MmzcXs9lMU1Mzu3fv5q233qK5uRlNGxfPnQb0AM1CsF0I8UxQUPAZl8utKQpcz3b5547Q//t//xv/8R8/YtWqVcLrVY0Gg2LTNPUBIZSva5qWA4QMvu6QkBBuv/12Hn74IWw2Gw6Hg0OHDrF//wHq6+uwWoNIT09n6tQpFBQUYLPZMBgMKMqnzouAt2Kwra1pGpqm4fV6OX/+PIcPH+HIkcNUVVVjt9vx+XwDTBchBNHR0dx//32sXbuW0NBQ3G43DQ2N7Ny5k61bt9LQ0ICqqsOZImOFSwhRKYT4qcGgvBUUFGzv6emmsPD6DOJcl4RetWpV4D8VKaXiX2whpEQBzWA2m02qqmapqnaLooi7pZSZfhvywusNCwvj1ltv4aGH/GRuaGjghRdeZO/evTidTt1eNhqNWCxmbLZQcnNzmTy5gPj4BCIiwgkLCyMsLAyTyYSqqrjdbux2O42NjdTU1FBVVU1ZWRlNTU243W7cbjeapo1ogwcHBzN//jwefvgRUlKSMZlMeDwe2tra2LNnD9u2bae2thafz4fP5xvRJBkNhBCdwE+F4DmXy90REhLEli3Xn2vwuiL0ypUrkBKLphHiH3m1CUIQIaUMlpIgKYkTQuZIyQ1ABv4Fn2Wo61QUhcTERO65525uueUWzGYzjY2N/PnPf6GwsHBEghgMBoxGo+5aE0Lo21RV1UdP/+isoqraJY2oRqORuLg41q5dy7Jly4iOjsJisaCqKi6Xi4aGRk6cOMHx48c5f/48TqdTnxECpomiKPp5Sinx+by43Z4LZgYAIYRdCPEDg0H5s9Pp7E1JSeG111672o99TLguCL1s2TKEwGowmBJV1bdS07hLCGYNGnVFvz/DUNcmpURRFCIiwpkyZSr33Xcv+fn5ANTXN/Dyy+vYsmXrZY9244nA7BATE8PKlStZunQJsbGxBAUFYTQadfI6HA46Ojro7Oyko6ODrq4uAEJDQwkLCyc4OBin00F1dTVHjhzh7Nkiurq69BmoH5oNBuVBs9m8U1VVdfPmzVf7Foztfl3tE7gY+pJ64oBbpeQfgTz80bxRn3tgcRcWFkZGRga33XYrS5Ys6fNg+CgqKuKVV15l//79V/tyR4SiKERFRTF//jymT59OevoEwsJCsdlsWK3WUfvIvV4vR48e44033uDUqVN4PJ7+v5VCsFkI8ZWQkKA6l8tzXS0Sr1lC//rXv+aFF14kPDx8opTa96TkQfwLuouif1DEaDQSFRVFYmIi8+bNY+3am4iKikJKSWdnJwcOHOCtt9ZTWlo6YJF3PSAiIoJJkyZRUJDPhAkTCA+PwGq16AtW/2LUh8/nRVU1LBYLUVGRREVFYTAYqKmp4U9/+jO7d+8ePFJ7FEX8/xRFPPP00znuu+569mpf6qhxzRJ6+fLlAAWaJn8KrGFQjkXARu1vlwYIbLOFEBYWTlRUFCkpKcyYMZ25c+cSHh7ez/9bwrZt29i2bRtOp/OyIoBXE/1f3uDgYCIiIggKCsJsNuPxeLDb7djtdjweD1FRUUydOoWlS5cxffo0QkNDOXPmDM888zvOnj07YJQG6kD8nRB8XFi4/dqxwS6Ca/Iprly5GhBpqur9mZTyHvqROUDkiIgIEhISCAsLw2w2YTAYMJnMhIaGEh8fT2pqCtnZ2Xo0TkpJT09Pn+vsMIWFO6ipqRkyUnc9Y3B0EhjgQ1dVlbi4OB5++CFuueUWrFYr7733Hn/96/N0dHT0n6U0ECcUhe8C27dv3z4uPsIrjWuO0KtWrcJoNFhcLs/3pZTfAUIDn0kpCQoKYsaMGcyePZucnBxiY2OwWq2YTCasVusFZoPfh9tAeXk5p0+f5ujRY1RUVAyX/PM3AVVVSUlJ5qmnnmLRokV0d3fxm988Q2Fh4WDvhyYEJ0H5f0lJce+rqqq99tobV/v0R8RYc3OvOPrcXnNA3kE/MgOEh4dz5513smbNahITEwcRUuL1+ujp6aGjo4PW1lYaGxupqqqioqKSkpISfQQar1F5cBLTYPMHAl4Kf9TZ5/MO2B7A4OSnK/2iGQwGamvr+PjjzWRmZpKUlMTdd99NfX09Z8+e7f9VRUqmgfxpU1NrpNlsfGXt2pvcH3740RU9v8vBNTVErVy5AqPRYHa7vf8mJf9Kv/C02WzmySef5PbbbyMoKAiXy8WRI0cpLS2hu7sHVVXxej04nS66urro6OigubmZ7u5uwP8QLzdTrr/dLoTAZrMRHR1NVFQU0dHRhIWFYbFYMJtNmM0WzGYzZrNpAKE9Hi8ejwePx43H48XtdtPd3U17ezttbW20tbVht9v1Y/T3dY8nArPdo48+wj333IPVamXv3r387ne/p7a2digfdb2iiD9KKV8Ezm/ffvFqnauBa2qEVlWJqvqmSckKBuVaLFq0iJtuWkNQUBBNTU28+uqrHD58lIaGelwuF8AAmzFABqPx0i+xP4FtNhvp6elkZGQQHx9PTEw04eHh2GyhhIbaCA0NJSgoCJMpYM+bhiWhlBKv19v3EnpxOv2JTz09duz2Hrq6umhtbaOpqYmKigqqqqqw2+0DCH65EELQ29vLhg0bSUlJYfHixcybNw+328Mf/vAHGhsbB59zkqbxv6RkphC8smLF8o+kpONaI/Y1M0IvX74cRRHBPp/2XeDf6PeyhYaG8v/+378zffp0ent7+eUvf8muXbtxu93jPnoFRmKTyURKSgoTJ+aQk5NDeno6UVFRREREYrOFYLVerCTw8uByubDbe+ns7KC9vZ2qqipKS0spKSmltrYWr9c7LteuaRq5ubl861tPM3XqVHw+H3v27OVPf/oTtbW1Q/4EqBeCfSA+MBiUj9et+2PDN77xbd59970rek9Gg2uC0KtXr6anx4nValotpXwGyA58pmkaa9as5hvf+AYRERF88MGH/O53v8PpdI7rOUgpMRgMTJgwgfnz5zFlyhRiY2P1PA2z2XxV75HH46G7u5vu7m5aWlo4deoU+/btp7Kycqho35iRn5/H008/TV5eHqqqcurUKf76179y+vSZ4UL2PqAVf5X6OSE4CIa9oJwC6S0svDoRxqtO6GXLVuB3e5IH/EJKeVPgs8BU/2//9gPmzp1Lb28v3//+9ykqOjcumWYBEkRFRTF79mwWLJhPZmam7ssdj0CLlJKmpiYA4uPjx2U20TQNp9NJZ2cn58+fZ+/efRw6dIj29nb9mJdyLyZNmsRTT32T/Px8hBBUVVWxfv3bbNmyZcic737w4s/D7hCCo8BfgEKLxeoxGBQ2bRq77MOl4qo6YZcvX46UCkKQDHxPSnkv/QpKpZTcfvvtrFy5AqvVys6dO9m8eQsej+eyjiuEwGq1kps7kUceeZTHH3+cxYsXk5WVSXh4OGazedzMGFVVef/9DZSVlTF58uRxeUkCudNhYWGkpKQwbdp0brzxRjIyMuju7qKnp+eS8lHa29s5ffo0MTHRJCb6ax3z8/NJT0+ntraOnp6e4X5qwC/3EAVMBFaAiFcUccrn8/VOmDCBioqKcbmfF8NVI/Ty5cuJiQnG6fQkAv9LSvl1/JUVgJ/MEydO5OGHHyI1NZWOjg6effZZ6urqL/mYiqIQFBREXl4eX/7yl3j00UfJz88nKsqfxXYlQt/d3d08++xznD9fwdKlSwkKCrr8nQ66JovFQkREOJmZmSxevJgJE9Lp7PyU2KMdsaWUdHV1c/LkCUAwYUI6YWFhTJgwgblz52Cz2WhqasLj8YxUaGAAwoCpmibzpZT7w8NDu3JycigpKRn3+zvUwT9zLF++AiEU4XB40qTkB1LKv8Of5qnf2MjISJ544svMnj0bKSVvvvkmu3fvwev1julYUoLBoGCz2SgoKOBLX/oSjz32GDk52QQHB4/ok+4fbbsUSCnZuXMnhYWF9Pb2EhcXy8SJEy97n8P93mAwYLVaSUtL48YbbyQ9PZ2enh69kEDTJKM5tNPp4uzZs5SWlpKcnER4eDgREREUFBSwYMF8YmKicTgcuN3uvsoebaj8bjOQCUzy+dRPfD615/z585d83aPFZ07oVatWAsKiaXIa8NO+kqgBI7PVauX+++9nzZo1mM1mjh8/zksvraOtrW1MZJBSEhISwqRJk3jiiSd47LFHyc7Oxmod3WhcWVmJxWLBZDKN4mgXHtvlcvH88y9QXV2Nz+fD6XSwZMmSS9ofgMPhoK6ujsjIkRUX/KO2mfT0dG68cTGpqWm0t7djt/cMzqwbFj6fj4aGBg4cOIDb7SI6Oprg4GCioqLIz89n2bKlzJo1i6SkZBRF6cuzdg8euQ1AqqbJiNDQ8O3Z2Tne0tLiS7r20eIzI/Tq1avIysoy+HxaipTydin5Fch59HPPaZpGUFAQt99+O/fccw9hYaHU1dXx+9//nrKy8lEfS9M03e1255138PWvf41JkyaNyTZWVZXf//5ZgoODSEpKuugL4HQ6aW9v16OUVVVV7N+/n8LCQhwOB1JKnE4nwcHBCCGw2+309vbidDp1v/XFrunYsWO8++57LFy4YFQvpBACk8nEhAnpzJs3D4vFQmtrGw6HY8gE/8GQUuJwODh16jSHDh3C5/NisVgxGo0EBwcTHx9PQUEBy5YtY8qUKTidLpqbmwevcUxAotvtaejo6DwxZ84szp07d0kcGg2uuJejL585BEgGMQ14TEq5hn6jMqDrVdx00008/PBDxMTE0N7eznPP/YHCwsJRjSyB6TgqKoqZM2dy9913MXHixEuyjc+cOcNPf/ozsrIy+fa3v014ePiI3y8vL+ett9Zz8uRJ2tvbcblcQ5oHgSKD0NBQIiMjKSgo4O677yIrK2vE/Xd3d/Ob3/yWc+fO8Z3v/DPTpk0b8zVpmkZJSQlvv/0OR44cob29fcxmVVRUFHPmzGHGjBmkpCQTGRlJTEwMJpMJh8PB66+/zttvv4Pdbh/8080mk/ExKWXzlVR9umIj9LJlq8jIyA4Sgqkg7we+KyV/D+QPPq6maURGRnLHHbfz4IMPEh0dTUdHBy+//DJbt27H7XZd9KZrmj/ft6CggIcffoj77ruPpKSkUT8sTdP6ghl2uru72bhxEydPnqSxsZH8/AKsVmufnciQ0bqwsDC6u7s5ceIEnZ2dwwY9AtucTicWi4Xly5cxa9asC2z5QDTR4XDQ1dVFWVk5r7/+Ot3d3RgMBnJysvX1xGijh0IIYmJiuOGGG4iLi9NTBEYzWgfgdDopKSlh586d7Nmzl/Ly87jdbmJiYggLC2Py5Mm0tbVRVlY+2PywSKlVSilPVlZWXia7hscVIfSyZcsBmQjaQ8B/SMkjwASGyGkWQpCRkcF9993H3XffRVhYGG1trbz++ht8+OFH9PbaLzrCappGeHg4y5cv58knn2DWrFljDoQ0Nzezbds2tm8vZPfuXRw8eJDu7m68Xi81NTWUl5dTWlqKw+EgNTX1gnNSFIWsrCxsNhsVFRX09PSMGPqOj4/nkUce4ZZbbh7S3PD5fOzevZtt27axe/duPvnkE+rr6/H5fLS0tFBbW8fZs0U0N7cQHR2NzWYb9bWazWaysrKYNGkSHo+HpqYmXUphNAiE4F0ul17S5XA4yMnJITQ0lAkTJnDkyGHZ2dnVf4ehQojG3l7HBzNmzLhiHo9xJ/SyZSsQQkkH+R0p5bfxE3nAneovibVw4QIeeeRhVq5ciclkor6+npdffoWPPvpI13gbDgF3VFpaGvfffx/33nsPiYmJl3TeDoeDAwcO8NFHH3PuXPEAE6elpYWSkhLa2trIz88nOzt7yPPykzoTm81GWVm5nn8xGJ/mI988ou1cUlLChg0bOXbsuL4gFkLoo2R1dTXx8XFMmTKFkJBRFfMMQGRkJHl5eYSG2mhsbNLrEMdKbFVVKSsrIzQ0lJycHEJCbHR2doozZ870H6UF0BQcbN3s9XqdV8ovPa6EXrFiJUKIZCm170spv4rfH6njU5FCCzNmzODOO+/kzjvvJDc3F5/Px5kzZ3nxxRcpLCzE5XJdlMwGg4FZs2bx2GOPsXLlikt6qAGEhITodmxdXZ2eJwJ+oqampvLkk0/05WsPn/AkhEJmZiYHDhykrq5uSHJMnjyZb37zGyOSOTDiR0dHU1NTc0FQIzw8nFtvvYUHH3yQuLi4S77uoKAgcnNzSUpKoru7m6ampotKLFx4zf6K8oaGBhYtWkRERARGo4GtWy8oOO4G9gF1V4rQ45Zt5y+ZkqGaJh+RUj5GP5kt8HsNYmKimT59OtOmTaOgYDJZWZn6in/btm188MGHlJSU6Aun4SClxGKxsGbNau64446LLqhGi+joaNasWc2ZM6c5duy4btcqisLixYtYsmTJqHKpHQ4HLpdzyICGpmkXC0zoUBSFhQsXUlxcTG1trU4OTdPIysrk1ltvJTY29rKv22g0smDBfOLj43jvvff4+OPNA17o0aK5uZnq6moSExNJSkoiLCyM1tbW/l9JAjlJSg5e9kkPdy3jsZPly5fT3e0iNNQyV0q+Qb+RWUqJ2WxmyZIlLF++jNzcXGJjY1EUBa/Xy7Fjx9iyZStHjx6hubkFo9F40RsZFBTEPffczR133DEuD7Q//Nl2n84m/TU3Rov6+np6ex36yGUymfD5fDrBu7u7aWhoID09fTRnpJM/kMoamJ0uJzV2KGRlZfHYY48RFhbG+vVv62m5Y0FZWTkzZ87EYrGQkZFBW1tb/xc7SUqm5+ZmrjObzdrHH388rucP40RoKSWhoZYE4AH8Ai+fHsBo5K677uSOO+4gISGhTzbWybFjx9i3bx8nTpzUR5/RPKCQkBAeeeQR1q69iYiIiHG/IY2NjbS3txMXF8eKFcuprq7m2LHjlJaWjTo/wk/oXqSUTJ48mdtuuxWXy83GjRspKSmht7eXmpraURFa0zTOnz+P0Whk/vz5xMXFsXXrVlpb26ivryc5OXnI3zU0NFBYWEhUVBSrVq0adZVObGws9957LyEhNl5++WV6e3tHfe+klJSWluL1ejGb/WblkSNHBlXycENxceVkkCfH/eExDoReu3Ytzc2thIWFTpRS3tn/M1VVufXWW7jvvvuIiYnB5XJRWFhIYWEhNTW1tLa24vF4dHWfiyE8PJyvfOVJli1bjs126fbySGhra2fatKksWbKEvLw8enp6OHDgAPv27R81oevq6jCZTDz66KOsWLGCCRPS0TSN/Pw8Nm/ewt69e6mtrRnVvlRVRVEUnn76KWbPnk1wcDCzZs1k586dtLa2Dfn9DRs28Mwzz1BUVER4eDj/9E//xJNPPjlqf3xERAS33XYbNlsIf/7zX/TF4sUgpeTs2bN0d3eTmJjIzJk3sG6dFYfD0f9rc0CucLm8J1euXMl4+6Qve1GYmjoBqzUoBORdwB2B7ZqmkZOTzUMPPURmZiZOp5M///kvvPPOO5SVldPd3T0mp35sbCxPPfUUS5cuJTg4eFxvQn9ER0cxbdo0srKysFqthIaGkpmZyeTJBURERIxqpGttbWXp0iUsW7ac+Pg4vY4xKiqKvLw8srOzMZlMZGRkXHRfQggKCiYzdepUIiIisFgsJCUlMWnSJFJSUgbci6qqKv7jP/6DX/7yl5w8ebKv8qWV8+fPs2TJkjEtHs1mf+g8MTGJoqKiwaQcFj6fj4yMDDIzMzGZTFRWVlJdXd3/KyYhhNFkMh+TkubMzIxxzcS7bEJnZKQDWizwFaAgsF1VVW677TZWrFiBwWDg7bff4f3339dV6cey4IiIiOCpp55i8eJFWCyWUf/uUhAcHExISMiA0cxoNBIeHj7qaTsxMZHk5GSsVssFxbAWi4WEhASSk5NHZWIZDAbCw8MGfFdRFEJCQggODkZKicfj4b333uM73/kOGzZsGGy30tnZSVdXF2vXrh2T3W00GklJSSY2No4TJ05cLCdah9frY9GihQQHB2M2m9m1a/eARbAQYoKiiCajUTmoqppv9epVHDlyZFye3zjkSwpAWEGkBrb4bepQUlNTdRHETz75hI6OjjGvnENCQnjyySdYuHDBVa8aGS2sVuuI5A9kxV0uAv7f7373uzz99NPs379fD5CYTCb95fd4/HJe69atG/MxzGYzCxcu4CtfeXJUblFN0zh79ixFRUUoisLEiROZOXPm4Ip4RQjxd0aj8eZHHrmPhobGi+53tLjsEXrChAzwa899FX+CN1JKEhMTWbZsKUlJSRw/fpxPPtk5bKBhKASqkh977DFuuummK2pmXG8IiOZs2LCBf/7nf2bDhg309PToHpXw8HAWLFhAVlYW9fX1eL1e7HY7TU1NLF68mJiYmDEdzz9Sp2CxWDhz5oxezzgcAsW/c+fOJSwsjODgYA4cODAgWKVpWqjPp6adOnX2tMej1WVkpDEeIfHLGqH9LiQNwAQyqv/2kJBgPZm9tbV1TH7NgJ/5nnvu5uab115WwOTzBq/Xy5kzZ/jXf/1Xvv71r3PkyBHdvRgUFERBQQEzZ85CVf25KQUFBfpsceLECX79619fkjsuJCSEm29eyz333I3FYhmxaEBVVY4cOcLx48dRFIX8/HxWrVo1VKLWPJD/BN5ssAQS2S4LlzVCFxUVceLEKeLjY7OklN+k7wWRUpKWlsaCBQuIioriyJEjnDhxctQZcwaDgbVrb+KBBx4gKipqNKfyuYemabS0tLBhwwa+973v8f777+s2rcViITo6mhkzbiA0NBSv16svuIOCgnA4HNjtdlRVpbm5maSkJKZOnTrmcwgUD/T22vXko+Gep9frpa2tjXnz5hEREUFkZBSlpaW0tLQMXlcUgBDgKwK6MjIyLmukvixCJyQkEhcXa9E0bXl/l52qauTn57No0UJCQkLYtWs3RUVFo65OnjVrFo8++ggpKSmXc3qfG3g8Ho4ePcovfvELfvzjH1NT43f5BRaHEyfmkpWVrQeDBkKQkBBPU1MTXq+Xrq4uOjs7mTdv3phND/AvmuPi4qirq6e+vn7Y56lpGj09PVitFvLy8oiN9SdQnT59ht7e3v6/E0KIOfj7nVcDLRkZGfJSSX1ZhE5Pz0BKGSal/BL+tr99F6Myb948Fi9ejKL4q37LyspGlTWXlpbGY489xrRpYx9BPm+QUlJTU8Nbb73Fv/3bv/Hhhx/qKaNWq5XExEQmTcojKipqWDOifyJYQDymoaGhb7G38JKqZ6KiorDZbJSUlOipsoMhhMDj8VBfX8+ECRNISUkhPj4eo9FASUkJTqcLRfmU1MB0YKoQostgUOqysrLcl1KydcmEfuCB+2hubsVqtSRJKf83EB24gcHBwSxdupT8/HxaWlr4+OPNNDY2jkjoQAro/fffx6pVK687rebxhtvtZteuXfzyl7/k5z//OfX1/uJgfweCCLKyssnM9PuxL7ZIUxSF4OBgPB43PT09+Hw+GhsbycjIIC8v75LOLykpCU3TKC4uGTb11K/O5KCpqYm8vEnExsaRkpKCpqmcP1+Oy+Xu/5wFkAIslxJFVSmbMCGrp7JybKS+ZEInJCRjtVpNUspVUmpfoc9+1jSNjIwM1qxZTUJCAqdPn2bnzp10d3ePmB/sT3Zfzn333fs379EoLy/nhRde4Ec/+hGFhYX6qGw2m8nMzGTChAnExMSOWmzn01YcEbS2tuL1euno6MDpdDJr1iyio6PHfI6KopCcnExbm1/VaThzUkqpt8rwq8XGkpaWhqIoVFdX43A4BpM6GJgLBAkhjmdkZNnHQupLJnROzkQURUQIwX9qmpbVdzJomsbMmTNZu/YmLBYLW7du4+DBgyPaz0IIJk8u4IknvnzJ+cyfB7hcLj7++GP++7//mz/96U80NDToZIyNjSUzM4vU1DRAXHRUHozAYttsNtHc3AxATU0N0dHRzJw585J8/FarlYSEBMrLy/V9DoYQAlVVaWhooLfXQVZWFnFxcWRlZRESEkJdXZ0uqNnvekxAgRBCtVqNe7Kzs9WysrJRndMlEXrZsmVommrUNO0W4O+llObATQsPD2fVqpXMmDGDnp4eNm7cOKL9rGka0dHRPPTQQ8yaNWssp/G5QmlpKc888wz//d//zd69e/VCU6PRSF5eHomJSURHR/fZypemGhVYRPp8Prq7u/H5fNTU1DBlypRLTsGNjIzEYDBw9uzZwYs9HUL4X8AAedPSUnVSp6Wl0tvbO1QetlkImamqapmqqucqKipHdT6XROjs7GwhhEgBfqlpmn/IwO9/zMvL49577yUiIpwjR46wZcuWEc0Nk8nEggULeOCBBy65vP96hsPh4P333+fHP/4xb775Jo2NjbqPNykpmZycHF1CzOfzXdaxAqO0xWKho6Mdr9dLe3s7breb2bNnX3L2YlJSElVV1dTU1Ayb5x1YJFZXV9PU1ExiYgLx8QmkpaWRk5ODx+OhqqpqcH1jqJSEAR9mZGS4RuP5uCRCp6enm6SU3wNxJ309pAMaGCtXrmDp0qX4fD42bNjIwYMHR7SdU1JS+PrXv/Y3aWqUlZXxs5/9jF/96lccPXpU9yubTCamTp1GQkICoaGheDxjE9cZCZqmERwchBBCT76vqKggJSWFqVOnXtKgYjKZiI2N5fjx43R1dY1oWvp8Purq6iguLtbt8Li4WLKzs+no6Bj8UgggSAjKgLNXhNDLly8XQogVUvJv9IW6AzcqL28Sjz/+OOHh4Zw9e5YNGzbS3Nw8pLkhpT/6dOedd7B06dK/qfYQDoeDt99+mx/84Ads2rSJlpYW/bPU1FQmTcrTxWSuRM9EISA0NAyPx0tPj9/0OH/+PPPnzyc1NfWS9hkVFaU3Y/J4vMMqNAkh0DSN1tZWiorO4XK59FKz1NQUDh48NLjczCYE9k8+2fX+l7/8JY4fPz7ieYya0CtXriQrK1NomjIF5M/xq4UK+FS66/bbb2f+/Pm43W42btzErl27RpCtUpg0aRJf//rX/ma8GpqmUVZWxr//+7/zP//zPxQVFem2ssViYerUqSQnp2AymS7o8DWe8JseRhQFurq68Pl8tLW14XK5mD9/PqGhoWPepxCC1NRUTp48RWtry4jnHsi2dDgclJeXExMTQ0ZGBpGRkXR2dlFUVNR/lFYAe3Z21paurq6LyomNytm7bNkyvF6PkJKpoP5CSjmr/2+NRiPTp0/nppv8SrgnT55k9+7dI9p8ISEh3HXXnVek6uRag5QSu93OK6+8wv3338+LL744wFZOSUlh7tx5REdHD9mu7krA5/OSkOCv/Qtg/fr1fPDBB5eU6wH+NN+77rpz1Lk3iqLQ2+tgw4aNtLS0YDAYmDt3zlBmT7SqqtmjqsO82BeWL1+OwaAoimKYr6raM1LKpQyqdElPT+fhhx/GZrPR0tLC9u3bqaqqGtazoSgKOTk5zJkz53Nvang8HoqLi/nWt77FP/7jP3LixAm9L2JwcLBeMGwwGPD5xt4P/HLgcrlIT08nISFB//+f/exneqHyWCGEYM6cOeTk5Iw6MKYoChUVFdTX1+s5QEO8EMFSihgpL86VEY+6cuVKnE4PmiYXg/illHIhg8yU+Ph4Xc3T6/Wya9cuCgt3jEhUq9XKrbfecsXbOlxNBDrVvvzyy9x55528+uqruvSWwWAgMTGR+fPnExMTi8fj+UyJ3P8cDQYjsbGxeu50eXk5v/rVr3Tx9LHCarXq/Q9HC1VV6ezs1MvNhoARpGU07soRCe0XTzTnSMm/SCnnDP48JiaGBx54gMWLFwFw7Ngx3nnn3RFVeIQQZGdnM3v27M9teNvpdHL8+HGefvpp/vEf/5GSkhI90zAsLIz8/HymT5+Bqmpj0m++EvB6vfooHQiCvPHGG3z88cdjli4G/4g7e/ZssrOzxzT7ms0WfcE4hKC9Rwjso9ndsIy66aabiI6ONEnJV6SUKwZ/npCQwKOPPsJtt92KoiicO3eOl15aR01NzYgXYrFYuO22Wz+Xo7OUksbGRp5//nkeeOABXnvtNT3xPlB6NW/efOLi4kddo/dZwG7vJTMzS/esOBwO/r//7//j/Pnzl/SyBQVZue22W0ddLmcwGIiNjcFgMNDW1jbU2ssONI1mX8MS2uPx0NbWsQjkWvp8zeB/aAkJCXzta1/j1lv9ZC4tLWXdupc5derUiGQWQpCVlcmsWbPGXVPiasNut7N7926+/e1v853vfIfS0lI98hUdHU1ubi433DATj8dzRVxxlwuTyURSUjJmsxkpJSUlJfz85z8fSkX0ojAajcyaNUsXEroYwsLCdLs5EDEcfHuFEI2j2deQhL7llpv56lcfEFJyo5RM6f9ZeHg4jz76iG5mnDlzhj/96U/s3r17VCe/evWaz10FSldXFy+//DJPPvkkr7/+uj76BgcHk5yczMyZs4iLix+TxsVnjUCQKzBzejwe3nzzTTZt2nRJo3RISAirV68Z1XFDQkL0fuzd3T1DHc9hNBpbR2OiDvkNp9PNn/70ZgZwA/2EFv0NMBeyePFijEYjxcXFPPvscxw8eGhU9nBUlF8i4PMU4lZVlffee48f/vCH9E+gMRqNTJyYy9SpU/F6vZcdtr5SCDQgcjh6OXv2zABTqLu7m1/84heMNjGoP0wmE9OmTRtVxVH/Lr/DzF5qTEy0ZzQmzJAs1DSJpslMKZnYf3tQUBDLli3DZrPR29vLunXrOHv27KhGZikls2fPJjIy4rIewLWG48eP84c//EHPVw7AP+JoqOqV9ylfCgISbVJKmpubOHnypN46IwBN0zh9+vQl1yFGRkboPXJGQn/+9Ev6H3A7m5ubzaNJlx2S0EKAEDIepO51D0xJiYmJKIpCcXExx4+fGPXFGQwGFiyY/7kyN5qamvjzn//Mnj17LvjM7XZTUlJCTU0NwcHj2/nqchHQB7HbeygtLeHMmTN6uNloNJKdna17PZxOJ+vXr+f9998f83FCQkJYsGD+RfVMnE6nnl4cEmIbaoAM0TQZN5qBYUhC9wkChjJIDtcvnmLt6zR6etSLGyklEyZMIDMzc9RiLdc63G43mzZt4tVXX9W3zZ01jdtvXk1U3yzkdDopLj5HaWnZNRHeD8gcKIpCVVUVZ86coa6uTnfPJSYmUlBQQHZ2NpMm5emmYWNjY1+fm7GZHgaDQS9IGI6MQoi+VFY/lyIiwocidKiUWtIlE3qoz6SUA5RBA2KEo72R8+fP/1yFuU+dOsWvf/1rOjs7AUhMTODJh+/gP//lq/zTNx8nMd4vu6WqKuXlZZSWllzVkfrTUdnOqVMnKS8v0zXrTCYTeXl55ORMJC4uHrfbg9Fo1BuFSik5dOgQzz333JjXAuHh4cyfP29ErrhcLnp7/d6UuLi4CzxgQohwo9GcOpq110iEduNveavfkLa2Nr1SIiCJOxqYTKZLVpm/FtHU1MSvf/1rTpzwm1wGo4k71y7lpiUzSU+K4sv3r+an/+fvyZ+Ug1AUNE2joqKC2traq7Ig9leqmCkpKeHMmdM0NzfrxExKSmT69Bl6UlRAAsHn8xEZGaWHxXt7ey/J9LDZbEyZMmXE65ZSUlfnF8Sx2WzExcUNsquVGIvFkms2X+KisC8bqgVo7L+turoap9PZJx6SNyrzQUpJamoqsbFjL5m/FuF0Onn77bd5++239W0L50zn8XtvIiIsGK9PxRZkZu2y2fy/7/8dqUnxAHqK5ljUoy4X/hbQFnp77Rw+fIiammq93MlisZCXl8+kSfmEhYWhquoFJqSmaWRnZ+vPuaKigr/+9a+MtRo7NjaW1NTUEc2O6uoqPB5Pn5mSMWCw1DQt2OFw5PX0dAVdTIxmhEUhVUIwoDlgR0eHXhCZlpZGbGzsqLpT5eTkEBYWxvUOTdM4deoU//3f/637lNPTUnn8gVuZlJWEqvoDAlJKDIrgxtkFfO8fniQi3H/tvb29nD9fPu7tkYdDUFAQp0+f5uTJk7S1temEjYuLZ86cOSQmJurh7qHI5veEWJg+fbq+rbCwkJdeemlMpkdYWBg5OTkjdi0oLS3D7XZjNBqZMmXqAEL36Y1MFMJ4w8USlIZdFII8LyXFg7efO+dPyvZ3Urp4JEhKSU5O9ueC0G1tbfz4xz/W5V+tQUHcunoRty4fuhbSZFS4Y+Vcvv7lBwgKsiKlpK2tjeLic1dMeFII/+jb29vLnj17qK+v133LVqu1L49kOiaTeRhhmoFQVRWbLZT4eP9M09vby2uvvcbmzZtHfU5+QmePaEcXFxfrLeumTJmC1TrQvBBC5CiKmC+EYOXKlcPuZ1gjWErRI4QoBQa8irW1/lWxwWAgOTnlor1QbDYb6enp141y6HBwOp08//zzbN26VX8w826YzNceuR2rxTTswwoJtvDVB9dw48J5fS2EffpCcrzhNzGsnD59ihMnjtPV1YmmaSiKQnR0NAsXLiQ+PqGv7/fo/OMBz0h/08Oft/PSYN3nYRHQmrbZbMMe0+FwUFRUhNfrJSrK35C0/2AppbRJKecYjSJ+pPMeko2FhYV9fUZoAAZ0fWlsbMTr9aIoCgkJ8SOO0FJK0tPTr3t9Ok3TOHz4ML/61a/00S5jQhpfe/xe0pOi0bSRiREVbuNbT9xNeJi/EqS9vZ3i4uJxNz0MBoXDhw9TV1fXl93n9wXn5eUxe/YcNE3qBQRjgc/nIygoiClTPlWzeu+991i/fv2oM/KioqJIT08fltBSSl0OOBDAG6IZ6WKfT73J6/WycuWKIfcz7PAqhEQI2QEM6EfQ1dWlO8EvZkYERGciIkZutn6to7m5mX//93+nqcmf8BUSEsIda5dy043TRjXKKYpgSm4at9+8CqWvkZDL5RwzsUaCEIL6+np90Wc2m4mKimbhwkV9rjj3ZUUsNc2fcxFo0hSYsfbu3Tuq30dERJKRkTHsNUspOXr0GA0NDRiNRqZOnUpq6gXahgnAvSaTKdft9nDvvfdeeK9HuEWAUIEBRlbgxgSmt4uN0PHx8VesH8pnAZfLxW9/+1sOHDiAqqr+MqEbJvONx+4Yk7fCFmzlnrWL9FG5q6uLurraSw40BdpcBM5BSklSUhLx8fFERESQmzuJOXPm6G64yw2/a5qGzWYjKytLd8GdPHmSl156iYaGhotfvy2E+Pj4Ec/D6XSyfbu/r3tkZCS33HLrEKM0azVNfik4OChsKNNtBBsapEQZ/J3+7ckulgLq7y0dfV3nPm/bto2//OUvulcjLTWZf/j6w8RFjb4VMfjNgYkZicyeOR3wvyjd3T0EBQWNiWwBIrvdLlwu1wBFKp9PZerUaSxdupS4uDicTte45pG43W5stlCys7P1ba+++ioffPDBUEn5A2C1WomJib6oUHphYSF1dXVYLBYWLJhPXl7e4FHdIKX8ksfjXQOqGOzGG5bQRqMRk8lkFEIZwFqTyaSf1Ej2U2BBGB4ePm439LNGRUUFP/3pTz81NYKDeeTem1k8a9KY9+W/H8EsWzhT36aqvjFJevkjtdDW1sqJEyc4cGA/3d1dAxLp7XY7nZ1dVyznWkpJVFS0LsXrcDj43e9+pweZRkJ4ePiIC0Pwry/ee+99PB5PX4u5e4iKihr8myQpeUxVuUDuaVhCh4WFEhYWajObTQOSEIKDg/Vw6Ejhbykl0dHRl1QSfy3A6XTyP//zPxw9ehRN0zAaDSxdNIcn7l/DpcZFgq1mZhRk6NOo3W7XmyiNhEDYuru7i4qKCo4fP47dbsfn8+kep88qo8/n8+kN6gMz79GjR3n++ecHd429AKGhoXpl+0j737lzJ0eOHMVoNHLDDTdwyy03D2WarZBSTI+J+VeWLVutbxyW0H2Ro1gp5QAXRVhYmH4DR6pmCBDaZhvb1Hyt4N1332X9+vW6XtuE9DS+/XcPEhF66Z4JRVGIiw4nvq+9Wm9v77D6ygEE7NW6ulpOnz6tR+kURSEmJprw8PAxCzdeDoQQuFwuIiIiB6hdrVu3ji1btoxoethstosSGvzri1deeYXa2lpCQ0NZvnwF+fn5g2edYCFY2Nb202ghPt0+JKFXrVpJR4ednp6eeK/XO8AATkhIwGg0omkaTU3NI47QUVFR1+UIffLkSX73u99RW1sL+O2/b3z5XqZPSr9M4kisVgsT0v3qRP4R1jNsnkNwcDCtrS2Ul5dx5syZAZUwOTk55OUVEBoaNup2a+OJQDpxwCUbKAYoLy8flhOhoaFDmQ8XQFVViouLefvtd/qi0qksWbLkgjWblHKmlGp0X58fYBhCqyqYTEq0qqrJgw+enJyE2WxGVVVqa2tHdMOEhYV9ZmHe8UJXVxfPPfcchw4dAvwj0l23rOKuNfMxGC6zSl36R9zIyE/XFf61ilF/yIHEe4Dz58s5d+4c1dXVuqxuXFwcU6ZMIS3NH6waqcL+SsLn8xEcbCMtLW2A6fH73/9+2Jk7KCiIsLCwUSX8ezweDh06REVFBUajkfT0dGJiYgbzLRNEWL+iquFC3xqa5ksBJgzcLsnKytIJXVVVNeLJWSyW667cav369bzzzjv6qFeQP4m/e+w2IkIv3/Uo8fukgwaUEgn6PxCbzUZTUxNFRWcpLS3VRc0tFgtTpkxh4sSJRERE4vV6R92z5krAb3o4iY2N06vFNU3jlVdeYfPmzUPmevTvnTga2O12SkpKAH+edFxc3GC+xUopLf23XUDo7373uwFbZRJcWCCbmpqK0WiksbGR1tbWEUwOv3P/eqruPnDggC40DhASYuPvn7yXvKxklHHijdQk3n4POxC5Czzoc+eKKC4+R1NTk07YhIQEZs6cRWxsHGaz5aqYGEMhoKORmztJ92Z1dHTws5/9jNra2gu4YTQa+8q+Rrd/TdP0F1pRFEymC7hkYhCHLyD04cOHMRqVCJDz6eubErjxeXn+E9c0jTNnzlzE9yixWK4fQjc3N/P8889z4MABfdtj99/KykUz/CbBOBxDAD5Vpafn0+pvKTWsVistLc0cP36MyspKvX7PaDQyc+ZMcnJydKHy8YwujgdUVcVkMpGWlobZbEbTNI4fP86vf/3rC9y6RqMRi8XMaAXbAy2pwd9u2eUa+CILIVxCCHVA7nT/L/zsZz+jp8cOiJlSclv/z6SUes85VVU5dOjwRVMIzWbzdaFdp2ka7777Lq+//rpOmLmzZ/LwXSuIirCNn0tMCFwuNzV1nxbUdnd3c/ToEc6cOaPLYQkhSE5OZsGCBURERGA0mi5JxeizQl/MQn/WHo+Hd9999wI5sUCF+WgRHh7OlCl+I6G9vZ36+vrBaaUNUkpn/+ejD5+//e1vefvtt4mICI9RVe12ILPfD0lOTmbSpDzMZjOVlZWcO3duROd9oN/09YB9+/bx7LPP0tHRAUBkVCRff/RW8rNTudT2D0NBSklnt53Kqk+z1Nrb2+no6NCJbDQamTFjBsHBIX3ZedeeKE0AAf/4uXNFA2oTDQYDMTExQ9ZR9if+SAgODmbRokXEx/tVps6ePUtHR8dgf3QJiAG5Rjqhd+7cSU9PLzZbyFQp5YCsDykly5YtJSUlGSklO3fuvKiijtFowmi89gldV1fHX//6V44dO6Zv+9L9t7J8wQwMBmVcAxZOt5eT56oHjLaBGUEIQUpKCllZWRiNJlRVvebMi/6wWi10dHRw/Pgxurq69HMNEPGHP/zhkDGI0fIiMTGRW2+9BfBHbIfSGhdC7DMaDS39sx11Qre1tRMRERbq86mLAF2+QNM00tPTmT9/PjabjebmZj75ZOclawhfS3C73WzYsIGXX35Z37bsxgXcc8tSIsNDxj0bzt7rYMe+40N+PmHCBFJT01AUw2eiD32p1xD4Kysr07XvAjnTCQkJPP300zz55JNER0dfshin1Wpl6dIlxMbGYrfb2bt331DyzPXA7s7O7p6MjHR9o/4NVdXwetVYKeX8/r+SUrJ48SIyMvxNHjdu3Diq7Cqfz4vPd+3afYCe4xx4OZMSE3js3lVMyU29IqOjy+Xm7LnSIT+rqKiguPgcPp8XKf1J+dfS+kMIgcFgoLe3l0OHDlJeXq6/eGFhYaxdu5Y33niDb3/72yMWUI+GFzabjcWLFyOEoK6ujsLCwqHO6E1QToaEhHDjjTfqW/u5ICT4+y3raklSSiIiIsjPLyAkJISmpiZ2796Dw+EYVenVeDa7GW/U1tbyzDPPUFzsrzIzm808cOdqVt84e9RupbEiyGph5vR8Ojo7cbnceDxeVPXThXVTUxPNzc19TYOmEhwcgtlsvqoyYgEiu91u6uvr9PsVuGeZmZl87Wtf40tf+tKoGnh6PN4RZx+DwUBeXh7Jycl4PB6Kis5RV1c3+AUpVxSxobu7q/W+++7nW9/6lv6BTug+ggYBiYEDappGcnKyfqKnTp3StRxGg4CQ97U00oA/Q2z9+vW8+eab+rali+by4B0rCQ22oF6B0VlKSVREGP/n248zc1o+1TX1NDW30NDYTFtnN80tHXR1d+v6yIcPHyYmJoZJkybpvtvP2gwxGPzmT3d3F2fPnh2wboqOjmbVqlV8+9vfHrXWt3+QGznN1Gg0Mnv2LAwGA62tbezfv38o23mDwaAcjogI5/vf/+7A3/c/GH51/gG5G1arFbPZb8QHGsyMBv7wpRuv13tN1RP6XY6H+MUvfqFfy4T0VB67dw352Ul4r6BXQQhISYjkGw/7M/YEgh6Hi+KKRvYeOsneg8c4VVROQ6NfN6O1tZV9+/aRl5dHdHSMTrDPAoHsvtbWVsrKyvSXyWq1UlBQwJe//GUeeuihMbVV9nq9eDzuEQc4s9lMQUEBiqLQ1dVJUVHR4O+3Avs8Hm/Xjh2FF+xrcNRDwy8uozPQ5/Pp7rmgoKAxGfr+KfXacjs1NDTwX//1X9TU1AD+Sop7b1vB6iWz8H0G5+ofaT8lZZDFxA35acyePIHH713Ftj0n2PDRJ+zYc5j2Pr90UVERaWlppKSkYrFYrqgJYjKZ+rTBWykqKhogARwXF8ftt9/O1772NebMmTPmfauqOqIZGhAwio+Px+fzUV1dM1Tfw1PAOSGGXmMMJrQb/xuQFDhAc3OzbmZMnDgRmy1E99deDG63f4S+VhKUXC4Xf/nLX9i8eXNfso+BRfNm8vi9N2ExKRctdr1S8Ku9qoQGm7n3pnncOGcyb23awWvvbOXkmSI9b8btdpORkUlQUNAVIXVQUBBtba00NzdTU1OjD0YWi4W5c+fy+OOPc9ddd11y0bPX6x0xbC+EID09rc9m91BeXj6EuUGlyWSoHe5ZDbahe4DzUvpVRxVFoaWlherqambMmEFGRgazZ8+mqalZ7xky0sl1d3fjdDqvCU2OQHnPs88++6mpkZbEVx+5nYyUmCtqaowWUoLXpxIVHszXH76Z/IkZPPPXt9m6Yw8+n09vZj9pUt44HlNisVjxeFzU1dVSVlamp6kG8kgefPBBHnnkEWbOnHlZx3I4nCO2yQ50ljUYDLhcLurq6gZ83rdArWtr62pPSIgdch/9RmiBELRJKY8CiwJbfT4fO3Z8ohP67rvvprS0jLNnz45ozwkhaG9vp6enRxcpuZqoqanhJz/5Cc3N/hzu8LBQHrn3FpbOm3JNkLk/Avbq4tn5RIaHYrVa2PDhNlRVpaWlhdDQUDIyMscldTQ4OIjW1jZqa2tobW3Vgz5Go5EVK1bwxBNPcNNNN41LKZ3d3kNbW9uIDaXi4+NRFAWv16eXvgVgMpmcQUFBTcHBwbz//ntD7kM3iC0WE6tXz2oDsQfQlaUNBgNnz56lsLAQu91OSkoKDz/80EUvMCDueCk9OsYbXq+XX/3qVxw8eFBvHTZ9Sh6P37caw3il0V0BaJpGQU4K3/nGg8ybfYPeK7uqqoqmpiZCQkIuyfMRyLkWQnD+fAVnz56hoaFBJ3NKSgo/+MEP+K//+i/uu+++casL7em5eMlZaGhoXxafOoRHTbQbjaYWg2H4hDf9k48++gi32yOBY0AhcHPgs0Aj+uzsbBYuXMjMmTO58cYb2bRp07C2XIDQg/o2XxW89dZbvPHGG3oARdM0enrsuFxexjNX40pASkleVhLfe/ph/rmljbLy87jdbiorK7BarQQHB4/Z82G1Wuns7KCsrIzu7m6dyIqicMstt/CNb3yDxYsXj3u10WhG6JCQED0tdXBPGp/P29vT02Uf6R0e5LKQmEzeMhAv0q+NVsB8WL/+bVpaWjCbzdxxx+0jLg6EENjt9jH5ra8Ezp07x69//WsaGxsHbi+r4NmX3kW9dtMldChCMH/GJL7/rUeIivIn03d2dtLe3obVah31KG00GjEajZSUFHPq1CldHhkgLS2Nn/zkJ/ziF79gzZo1V6R0rqur66Lqq4F0Y02TF2QYapqmer1e30iRxgGELiwsRFWt0mQyfSSEeAG/G8//RUXhzJkz7Nu3D7fbTXJy8pByTf0hpaS1te2q5X24XC5+/vOfc/z4cf2hC+G/ZIfDyaYtu/lo57FrvgGoBEwmA8sX3sADd67Vtzc0NNDc3DQqfRSTyURvr50DB/ZTXV2tL/xMJhN33XUXL7zwAk8//fQADbvxhMvlorW17aIvX2DGF4IhhM/RhBDaSC/EBU8yLCyY3l57F8gXgI/7f6aqKhs3bqSzsxOz2czy5ctGdMkJIWhqasJuvzrtzF588UU2bdqkL54SEjNYuOLbmEz+2FFlVS3Pv/o+NY0d11w0czCklESFh3D76nkk9zWc7+npwW63j5imqygKZrOZoqKzHDt2jJ6eHj1VNSsri5/97Gf89re/ZfHixVe0bYbd3ktTU9NFlbZcLpdePzm4XEtKDH1/w1/v4A3vvPNeX1WBclYI8SbQ3P/z6uoaTp48ic/nIzExkRkzZozohqmoqKCzc3R+6/HEkSNH+Mtf/qInUpnNIUye978xRT/F5Omr+0Zlyb5DJ3jxzQ+vSLj7SiA3K5V7bvtUqLChoYHW1pahwsMYjUacTge7du2kvr5ef7FtNht3330369at46mnniIpKemK977p7OygoqLiorNhd3e33g99iBYm4VLKyEtSH1UUgdGofCSE2NX/M78/dwdOpxOr1cq8eXNHNPKrqqouuRH6paKrq4tnnnmGw4cPA2AwGLlh3gP4zGvRlCTCU/+ZyCi/pkRvby8bNu9i+77T177pISXRETZWLb6B1JQU/Vo9Hi8Wi2VA3ozZbObs2TMcPnwYh8PRJ5ZjJDc3l//8z//kj3/8I3PmzPnM0hLa29upqqq66Ajd2Nikn+sQ7t4YIUQCwOrVq4fcxwjqo+DzyQYhxEEhhKP/QU+fPk1HR6febGa4qSqwMKyqqrpoUsp4QUrJSy+9xMaNG/VIV0raZMwx/4hUIpFSQVgmM3XO3+sP81xxGa+s/5D65s7rgtRZE1K4ccEN+jZNU/VRTVEUHI5edu3aqbviAu2Z77nnHl5++WWeeuopIiMjP7Nr9Xg8VFVVXXRBqGkadXW1qKqK2WwmJSV58FdMwESLxWQbzrMz7BVt3bq17wayT0pZ0v8zl8vF6dOnUFWV8PBwcnMnDrcbhBCUlpbqMq9XGnv27OHFF1+kpaUFAJstgsyp30exZOhpoaq0oYXcQ27Bp1P3tp0HWb9pB17f1ZMGGA00TRIfE860vAx9W3NzM52dnSiK4Ny5In1UDvibp06dyg9/+EP+/Oc/M2PGjM+8tV53dzelpaWjSjkuLz+Px+PBarWSl5c3xG/kRK/XlzlmQvfdPqT0HTUYlJL+O9Y0jZMnT+Hz+bBYLAPUKC84gKJQUvLZELqhoYE//elPukiMyWRg6pwvQ/BSVK3/1CpRTClEpn2LmJhPF1hvbihk/7Hia5rQQgisFiOZaUnE9UmK+XMvqjlw4AB1dXVomqYX2j700EO8+OKLfPOb39R9vJ81uru7KSkpveiMIKXUUy0MBgPp6ekXBHWkJFtK0oczo0c8QmFhISEhtl6rNahIURTd7NA0jfPnz+tTQ3r6yI0Va2traWkZWcjvchFotv7uu+/q29Iz52OKfAKNaAYHUFRNwRQyh9zpX8Ni8buHTp4+y2vvbKGptfPyVZLGAYoQGBQFo9GAyWREUQz0ONxU1bXR0ePUOwIA1NfX60Esi8XC/Pnz+eEPf8izzz7L1KlTr+pL2tLSQm1t7ajOQVVVzp4tQtM0goKChlL9j5dSxgzHt4uKZvQ5t4s1TWsF0sD/JgXccXFxsSQnJ414sl6vl1OnTjF5csEV61W4Z88e/vznP+uBnJiYRJJz/x6DNQffkNETiVeLxBhxH+nZeyk5swWADZt3MntGPg/fuQyT8bNR9fR3HfPX6ilCIBQFj1elrdtBe2c3bR1dtLZ10NzSTl1TO9X1rZSer6Ku/sJSuAkTJnDrrbfyzW9+k0mTJl31NYG/0ecpvY3JxaBpGi0tLbq5NDjfWghhYVDOfn+MgtA+QNRKKQfYDD6fj5aWZuLiYgkJsWG1WocNoAgh2LdvH2vX3nRFCF1dXc0f//hHTp48CUCQ1UTW5C9jtC3DqxrpFx8aBB8GSzbxGV+ho+UsLc11dHd388IbHzB5UgazpmSPO6ED5FWEgqL4Sex0+2jt6KG5rYvmljaamltpbGmjvqmD2sY2ahuaqKtrGLHZUFBQEIsWLeKJJ57gtttuu2ZUX7u6uti3b/+oZ4hA+Bv864XBqRV9npxhfawXJXRfZK1eSnoG7zgwGhqNBsLCwnA6nUOeuBCCyspKzp8/T0JCwrguSnp7ey8wNZIzlhMc+zBeLYpBTbwugFdVsIQvJ33ig/R0/QqXW+XYidO88s42JiTHERMVesl50p+OuP5/EYJeh4fG1g4amtupb2yhoaGJxuY2Glu7/NuaWqlvaMTldIzqGCEhIeTm5nLzzTfz6KOPkpOTc9VH5QBUVeX8+fNUVlaOmtAGg4HJkyfrXQoGp5ACXVLKYROELkpoo1GgKIZml0sdEO4L6EMH3EUXS+JXVZW9e/cxbdq0ccuP1jSNAwcO8Pvf/17XQEtMyiI552tgngjqxZPgBRoeLZqwxIdJTDtMReknALy9cSvzZhZwx6p5mI3KRVOYdPIKgaL4BRjbux19o2wLtXVN1NbV09jcRkt7N81tXTS1tNHW1jYqrTpFUYiMjCQ1NZW0tDTS0tJITU0lMTGRzMxMpkyZck3knfdHb28ve/fuG5Oo5PTp08jNnYimadTX11NXVzf4t/VCiObhfn9RQksJiiI8DGoeBAzI8hqNROqhQ4d48MEHx+3G19XV8ctf/pLycn/D21BbMCk5D2MMXYFXFYw6k056wVJA6sTHsHeV0tJcT2dnJ8++8DZTJ00gNzOZ/qXgfnv3U9NB1TTauxxU1bdSVdtEVU0dVVU1NLd10NZpp72jh7aOTjo6OgdUeY90rxITE8nIyND/0tPTiY+PJyYmhujoaGJjYwkLC7tmRuOh0NHRyaFDh0ZFZiklBQUFPProo9hsNnp6evQAXv/fC0GJEAzbm3lUSoqappkZwiMSSB4ZTUdS8EeLTpw4QVJS4mXLhNntdl544QW9o6kA4lKXE570KG41FMHYSpS8PgVL5O0kpB+ku/PPuD1+0+OFN7fwL08/QESYP3ikqpL6li4qaluoqK7nfEUNldU1tLZ10mV30Nltp7OzB7u9Z1RpnRaLhZSUFLKzs/W/gBZyREQEkZGRREREXDM28ajvp9fLiRMnRhUl1jSNuXPn8Nhjj5Gbm4vP52PXrl3s2bNn8MsgQRz7ylcernjllXeG3NdFCa2qoKoyGhgQDhRC6MnYPp+qt264GDZv/pgbb1w8VJx+1PCbL3v53e9+p0cgE5LzyCz4Gl6RgZBjr7cTaHjUKBKynqS9+Th1VQeRUvLq2x8QGxuF2WzifEU1FRVVdHTbsfc66bE76bHbcTqdo1o8hoSEkJWVxcSJE8nJySE3N5e0tDQiIyMJDQ0lLCyMsLCw60bkciT09vayefPHF/2elJJFixbxpS89Tna2fxG+e/du1q17eYgCWXEKxM4//elVWVi4bcj9jcLkUMHf8HBAgqyiKP36P9tHFTgJRIIOHz7M0qVLL1lqt76+nh/96Ed6jnNYWDjpufejWlaiqaNdwEkCJomUYFLsBBsrMMlz2ELMGBS/KdHZ2clvnluHxN9IaDh7t79MFvg7p+bk5DBp0iRyc3N18oaGhhIcHExISAjBwcHXjaDlWODz+Th8+DDl5edHfNGllEyZMoVHH32EnJwcVFXlgw8+4NVXX6OxsXHwS+0F+VFISOhut3v4dORRMEoAxIMc4G/zdyqNQlVVWltbR234+/XkNjJ37jxCQ8c+jfb29vI///M/HDx4sG9BqhCbvITQxK/iVk1c6KKTCCT+qKeGlCompZtgQymapxh75zkaa4toaqxGU3tBuvG47Wj9HkRHP3eZf9Gn6H8Bpc1JkyaRn59PXl4ekyZNIikpieDgYKxWKxaLBavV+pmHnK8WnE4XGzZsHHGxK6UkNTWVxx57lEmTJqFpGps2bWLdupeH7KYlhNgmBH9yOHq827dvH3a/oyC0Bv7ReUByqslkQlH8gQe3e/SJR1JKysrKOHToEEuXLhnTokZVVbZu3coLL7yg36zouElMnPGPOLR4hFARqEjpQ2oqqqZiMbQQpJSiuYroaj9Hfe05mhqrkdID0oPU/FprQ60BAoQ1Go0YDAZMJhNJSUnk5eUNIG9CQgJmsxmz2YzJZOq7N9fuYu1KQtM0Dh06NECcZjCklFitVu66605mzJgB+ANjr7762nBkPgjyJ3a7szQsbORBcLRzvptBDl1/KwV/wWlERMSYVH1cLhebNm1i3ry5Y0oqr66u5oc//KG+0LCFhpM/7U4cvjx8vnpMopkgwzl8znN0thZRU11ER1sTmuYF/CTXtKFlagOEDZDSarWSmppKfn7+APJGR0frBA/8e73bu+OJwLMdqUrJL8+8jMWLF2MymSgrK+PFF1+8oMobUIUQ+0F+D+T+kJAgPWluOIzChlYAWkEb4Onv7e2lurqayZMnk5ycREZGBqWlF09AAf9bXFpaysGDB1myZMmoCNHb28tPfvKTAfIJQpiQ3lq6yh+ntrqY9vYWhJAgA+bF0LK0geY1VqsVq9WKzWYjPT2dvLw8/W/ixIl6T8aAEui1pgh6rUFKyYEDBygtLR12cAvIMy9fvozY2Fh6e3t55ZVXqeonAt8HnxDiE4NB+Wev13NSUQxyaBXSgRhVYEUIUeb1am0DjubzcfDgIfLy8oiNjeW2227lueeeo7fXMSpS9/b28s477zJt2jS9i9JIeOedd3jnnXcGvPk93a3s3L4OGL45u8Vi0RdgISEhhIWFkZmZqS/W8vLyyMjIwGaz6WTtv7j7AqNHZ2cn77773gXV2v1hNBpZtGgRU6dOBfxqA0ePHh3cPFQTQhwGw/8SQp4ymczyYiOzvv+LfSEoKIgPP9xes2jRnDJgAX5BR7xeL4WFhaxYsZz09HSWLFlCc3MzH3zwoa69MHKjco2ysjI2bdrEww8/POJL4PF4eO655/Qc5/4I6MQpioLVatVdX4E2vJmZmUycOFH/S09Pv6bEIz8vCCzqysrKUFVtyPbRqqoyceJEFiyYj8Vioaamhh07dtDR0TH4+ddJKf4vaKe2bNk2pryDixJ6w4YNLF26HGAzyFVACnyacffaa6/z5JNPEBsby8MPP0xSUhLvv7+B8vJyfD7fCOVZAV/lFmbNmsWkScM3hHe73fp0HygzCgsLIzIyUg88xMfHk5GRQVZWlh6giI+Pv266cF3vKCkpYfPmLSPGI4xGI1OmTNGf9dat2ygvPz8oEijcUsp1oBXu2FE45iSaUT1tRQEh2KyqPAYk0+fL83g8bN++HZPJxD333E16ejq33HILWVlZvPLKqxw4cACXyzXs6CuEoKGhgbfffod/+qdvD5sPEhoaytNPP62LYMfHx5Oenj4gNDwWWdcvML5wOJy8/fY7NDQ0DEtmTdNITU3lhhtmYDQaqa6u1qvQ+w06mhDihMFgeNZgEJekRjkqx2hFRQUZGRlOIYRLShYCYYAuTVVefp76+npCQkKIi4sjISGB7OxsHA4ndXV1Iwo7+nw+urq6iI2NJSsra9hzKCgo4KabbuLuu+/mjjvuYNGiRRQUFOj+3i9w9bB9eyEbN26kp6dnREJPnz6du+++C4vFwtatW9mxY8cA29lgMDiF4HtSaoc0TdMqKirGfC6j9vRPmTIFq9VS7nK5I4Ab6NOQDuiQ1dTUUFR0DqPRQEpKCnFxcWRnZ9HT00NNTc2w5ocQAqfTSXd3F7m5uSMuEAMutS8WbNcOzp8/z7p1L1FZOXxFt5SSoKAgbrzxRubOnUN3dzcbN27izJkz/YNN0mg0fmIwGP/LYFB6R7sIHIxRE7q4uJjExCRVCIqEEKFCiKn0mSyBBWBXV5fusklLSyM2NpYJEybQ2tpKXV3dsNFEKSUdHR14vV7y8/P1ZuijRaC9cOBcvsBng87OTl555RX27z8wYqRYSklSUhK33HIzKSkpFBUVsWXLFtrb2/uboxrIH0ipnlDVSxudYQyEBqisrCQjI8MOnBJCuEBMpl/Skr+E3kF5eTmKopCZmUlsbCzp6WmUlZUN6aWAT02XxsYmbDbbmEuHNE3jxImTlJWVkZKS8jcbpbsU9Pb20tbWhslkGtMCWlVVNm3axPvvb6C3t3fEe65pGhkZGdx55x2EhISwb98+tm/frhfzAghBKYifaZpsCwgUXQrGnFxQWVnJxIk53UIox4FikCn0WygqioLL5aKysorg4GCysvykjo6O5tSpU/T02Ic1PVwuF42NTSQmJpGamjrqc/LvT3Lu3DlaW1t10ewvMDx8Ph9Hjhxh9+7dVFVVc+LESeLj40ct0rh//wFefvllmpubRzWA5OXlccstt+Dz+fjkk084evTogGckBG8JITYJIVwj5WpcDJf01MvLz5Oenu6SUp4DjgpBUJ8JMoDUVVWVJCcnk56eTkJCAj6fj+LikmEXiQGzpbu7m6yszFG3PgikstpsoezYsYPGxiYyMjK+cNkNg87OTrZt20ZHRyczZ84kJ2cibW1ttLW1kpiYeFE/fXl5OevWraOoqGhU0gRWq5WZM29g9uzZtLS0smPHDiorKwf8VgjxjMEgjoJQL3V0hovqcgyPvjCkChwF/h34XX+SKopCc3MLr732OqWlpRiNRm655RYmTpx40dHz6NGjvPfee0MmqgwH/8tyjvDwcFwuFzt37qS39+qLrV9raG5u5sMPP8RoNLFq1Uqys7NJSkrkhhtm0NbWpquSDofW1lbee+89jh49OupjmkwmXV+jp6f7gjxnIYRPCHHObnd6LncQuixjs4/UEmwVIH8N8q0BO1cUzp07x0cffUxHRyfh4eHcf/99I05rQghUVeXjjzfz7rvvjkpfWlVV9u3bR01NDWvXruXOO+/A6XRx8uSpz0yC7HpBSEgIZrMFp9OpPwcpJSdPniI+Pn7Eypiuri7effddPv5485jqBE0mk17J7XK59PrPfuiUUtqDgqx8/PHFiwJGwmUbmv6FYjJgbgOtps/00EXJpJTU1tYyaVIuycnJxMbGUlFRSXV19YjiND6fj9LSMoKDQ8jMzBh2GtQ0jaNHj3Hy5CnWrr2JpKQkTCYT6elpJCUl6dUfgZ7Uf4tekE+1sQVms5ng4CDOnz+PpmmEh4fz4Ycf4fF4mD9/3rD1nr29vWzcuInXXnttTL1dAt2Ily1bRlpaGlVVVezatXtA8yAhqAPWAW2VlZWXda3jsnKqrKwkLy+XsLDgOilFB7BI07TQwE10u904HE6mTZtKWFgYNpuNvXv3jjh6Bkh97tw5oqOjSE9Pv8Am1jSNM2fOsH//AVavXkV6+qdNzAOr9sBNa29vp6mp6ZovLB1vBIRbXC6XHoCKiIjA6XSyf/8Bjh8/RnJyEkuXLhm2l4rL5WLbtm389a/PDytVMRyklEyYkM5dd92FzWbj9OnTFBYWDopLiBJ/727RWVl56fYzXKbJ0R/h4WF0dvZIKdUPpJR/6C8GIoTgyJEjuo86kKI52qy8v/zlr+zZM/AFkBKqqqrYvXsPS5cuITMzc9h9uN1u3nvv/VH3V/w8obe3lz/84Y8XTOWzZs0iLi6WsLBw5syZM6wAkMfjYc+evfzlL38dMYtuKEgpiYqKYsmSJcTHx+PxeKiurhkqolgDjEubh3Ej9GuvvdbXDll1gHgX+KT/516vl82bt9DT04PFYmHp0iWjdq11dnby3HPPsWvXbj191ONx09LSwrx5c8nLG7lv35EjRzAajUyaNGnAMVVVvWrtMj4rSCnxej20tLQMqMA2GAysXLkSkJw4cXLI/GWXy8WuXbt57rnnRlRtGozAvmJiYlixYgW33347AGfPFrFv374LnrsQHDSZlC6D4fLNwXGde7du3UpQkIVz50pPCCE20a89HPiJ1dLSgqIoTJs2bUyNaVpaWvjtb3/Lli1bsNt7sVgszJkzRy/hGQ6NjY0cOnSY5cuXDRiFpJRUVlb29ZW5tvoUXgpqa2uprq6+oNEOQGhoGFOmTGHXrt0DtkdFRTFz5kyqq6upr68f8Jnd3suWLVv4zW9+M2xAbDACQuVJSUnMnj2Lr3zlSb761a9gtVppaWll27atlJWVDZ6ZW4UQB5ub2xzjIRM37tGH0tJSZs+eCQinlEwDdMNWVVWSkpKZOHFiXzemEr3n9mjgcvk9FxaLhdTUlIuGyD0eL++//z75+QXk5uYOGBm6u7t58803KS4uYcGCBdd99fX69ev55JOdhIeHExsbq1+r2+3m7NkzzJs3j8OHD1FQUDBggR0bG4vX69VzyME/I27a9AF//evzo2rLp2kaiqKQlpbGokULueeee3jooYd0s9KfUfk2GzZsuOC3QoiXFUW8FRRk7f3oo48u+z5ckXBabm4uKSlxLV1d3VOAeQMOaDCwYMECzGYzDQ2NnDhxYkyCiF6vlzNnzgD+quGR3up9+/bT3d3FggULsNk+/Z6maVRUVLJz5y5yc3OZOfOG6977oSgK5eXnaWpqwmBQiIuL69OHc3P8+Anmz59HT08PjY2NF6w3EhMTdTK3tLTwzjvv8Nprrw3lXrsAPp+P2NgYFi5cyEMPPcidd97JhAkTMBgMNDc3c+zYMdavX8+WLVsGV6UAokJRxE/q6tpORUWF6gpYl4MrEkr76KOPWLp0uQriOMgGIBH803xFRQUej4eQkGCys7Muaf9Op5M333yL7u5u7rjjjiHTTmtqajlz5gzLly/Te/sF0NPTw9GjR5kzZw5O54UlY/4gTTGxsbHExsZeE2T3eDyUlZVjNpuHvG8FBQUcOXKEhIREKioqcTgcLFy4UP/c3045g127drFo0aILOkyBPwL43nvv8fHHm3G73RfthyKEID8/n5tvXsuKFSuw2Wx92ivlnD59hhMnTnD8+DFaW9uGKibuBp7VNHEgMTFaV8C6XFyxhIeMjEwURQRJKRcDSYHtXq+XBQsWEBfn7+m8Z8+eMa+eAy69srJy6urqsdlsJCYmDiBmZWUlSUlJZGVlDXD3qapKaWkZVVWVzJ49m5qaGqZPn65/3tPTw969e3nrrfVMmDCBxMRE/XdnzpzlzJkzeL1egoKCPlMzpbu7m9dee42Ojg5SU1MvKIZQFIXu7h48HjdTp06louI8tbW1xMfHc+bMWebMma2Pmg6Hg5S+pkPgf4H37z/AunXr2Llz5xAj6UBomobZbGbhwoU88cQTLFiwAKvVSkNDA1u2bGX9+vVs2rSJ4uJivdpoEJxCiBcMBuV3ikLrcCpIl4IrRujs7CwMBoNLVbWVgN6ERQhBTEwMkycXYLVaUVWVEydODMi8Gg0C7XPr6+spKSlBSo2kpCT9QYeHh5GQkHDBSORwONi06QOWL1+OEArV1Z8SuqGhgb1793L69BmCg0OYP3+uHmjweDy88cYbxMRE09nZSWlpGcXF5+js7CQsLGzIES9QrTPUdfX29lJbW0t9fT21tbWUl5dz9uxZzp4tIigoWJdZC8But3Ps2FEmTZpEcXExubm5F+w3Li6WwsId5OVNIi8vj/Lyck6ePElHRwcLFy7Qay6NRqNe4dPR0cEHH3zAyy+/TFFR0UWDT5qmERISwpo1a/jyl79EdnYWiiI4dOgwr776Ghs2bKCyshJN04aTeOgA8VdFUX4upazZvn38yAxXyOQAf3FtdXVta2RkxID6dFVV2b17t1y79iYRHx/PTTetoaXFX1zbv3ZwNAh8r7q6mpdeWkd1dTV33303GRkZQ5ZzqarKuXPnsFjMZGVlDRBDKSsr59ChQyQk+MO/U6dOJSEhQf+ty+XC4/Fw44030tPTQ3NzMz09doxG4wUBohMnTnDu3Dk9Tzw4OJhly5bpgY1A/ndpaSlWq5Vz54oJDg4iPz8fKSXBwUEX3ANVVbHZQpkxYzpbt25l7969LFq0aMB3goODmTAhndLSUhYuXMjy5cspLCykudmvPqsoyoCRuaKigrfffptPPtlJV1fXReMCmqYRGhrKLbfczP3330d0dAwOh4MPP/yIjRs3UllZqcsrDwEphDgFPCcl72ia1rBjx6Vn1Q2HKzZCl5SUkJ+fjxAiGphDX9kWgN1uF16vlxtuuAGbzcbEiRNJTPy0eU8gQWYsxA6krJaXl2EwGHQ1o/7w+XycOnWKBQsWEB4eTltbG3V1tRgMBg4dOsjUqVMwm804HE6mTp2iR840TaOkpASfT2Xy5AJCQ0OJi4vTK3MsFov+EBsbGzl27Jhu7kRHR9PV5e8CFRAjDzTFjI6OZsKECdTV1REZGcWNNy7WS8oGN2lqaGigvb2NuXPnYrFYOHPmLKGhtgsqfOLi4vj4483k5uYSFeWPsKanpxMZGanvs7e3lx07dvDSSy+xf/+Bi+YzA30vWghr167h4YcfJioqmo6ODt544w3eeustvZ5wiGfmBnFAUcQzBoPhV4rCVkVROsZ7ZA7giiYNZ2VlIIRoAhYB+krG34+uDlX1kZubq2tlTJ06hYULFzJ9+gxsNhsdHR2jWmnDp0lNzc3NnD17lurqGmJjY4mKitJvsqIoxMTE6N2jqqur2bJlKwaDgUWLFpKZmcmePXtJTExgypQp+r4DyVKBJqKKogwQoek/ItXW1tLY2MTMmTeQnp5OXFwc0dHRbNu2nblz5+jfDSTsmM1m3QeckZEx5Evsr9ss94tKmowUFRX1SdV2MGnSpAG2vN+M85GQkKDb+QEya5pGcXExzz//Ahs2bKSysgpVVUdFZrPZzNKlS3jiiSeIioqitbWVV155hQ0bNtLd3T3UPjwgPgT+H4g/GAzKNqBq69Zt3vPnz3OlcIUJnYXXK+2KIgwg59BPwdTj8fQV19YRFxdHTEwMYWFhfRUu6UyZMpX58+eRmJhAc3Oz3i1gJPQfgWpqajh+/DgOh4PU1FSsVitCCIKCPp3OHQ4nJpORlStXkJycrNubgZkjAJ/Px+bNm7nvvnsJDw+nvPw8O3fupKamhtTU1AEzQWhoKOfOFVNcXKzrOgcFBZGdnX2BXRxAfX0DbreblJSUIReaXq+XgwcPcu5cMQaDgbS0NObOnUtrawstLS0XeHkCZA6QTEpJZ2cnb7/9Ns8//0JfoUXPqAV1FEVhypTJfPOb3yQ+Pp6Ojk5ef/11Nm7ciMNxgZdIA1EqhPgX4DeKwiEhaNm2bfsVJXIAV5TQ58+fJz8/D7PZUurzeTOBfPzdQAH6YvvV7N9/gGPHjtPR4e/karPZsNlCiImJIScnh3nz5hIaaqOurl5vbj4SAqNRV1cXxcUlnDx5iqCgIN03G3iQYWFhZGVlER4erpMmKipqwOgMfjOiqqqKJUuWkpCQQEpKChMnTiQzMxObzTbggRqNRtLT07DZbBw4cJCDBw8RFBRMWlrasCNhS0sLdrudpKSkIYNFLpeL48ePs2LFCqZNm0piYiLR0dHYbDaKi/0kj42N/fSh9s0cmqbhdDrZu3cvzz77HDt37qS1tXVMWYeBesBvfvObTJw4EYfDwbvvvstbb701lESFVwjxgRDiH4QQ2xSF9u3bC7WKisorSbMBuOJ1SmVlpaSlpXkVRRyTksn4I4f6cTVNw26309DQwMmTJ9m+vZCDBw/S2+sgIiKCsLAwIiIiyMvLY/r0abS2ttLW1nZBd6Sh4M8t8dLa2sKRI0c4ceIkZrOZmJhYDAYFo9Goj4gul4ugoCAmTJgwQBZBSsmhQ4cJDQ1lwgS/6pLFYiE4OHjAKBhAfX09FouFpKQksrOzSU1NZceOHXg8bpKTk4ckUkdHJx0d7SQkJAwZKHI6nRw4cIBVq1YSEhKiHzNgqkVHxwxwTfp8PhwOB3v37uW55/7Apk2bqKurw+32jNmnHhISwu2338bq1auRUrJz505efPGlodocu4XgLyB+oCiGcyB9l1NKdan4TArvcnMnYjQaejRN2yelzMavvqTP04F8ZZ/Ph9vtpq2tjRMnTrBnz15cLqfeTyQuLo65c+dgtVqpqKgYVbMdIfyk9Hg8NDU1cejQIY4fP47F4te3NhgMuvJoZGTkBQsygNOnz1BeXo7T6exrgKnotudgQm/a9AGKIvRc7NDQUFJTU9i4cRNz5swZ0gNgt/fQ2NhEXFzskCmcqqrS0tLC5MmTB1d6YDabdTJ7vV7dj/773z/Lxo2bqK2txe12943KY3tuQghycyfyjW98g+DgYIqKzvHnP/9lqEY+biH4rRDiJ+3t9bVWawiFhZ89meEzInRZWRnp6RMQQnQKoRRKiRV/E8+goc4h0LPFbrdz8uRJjh49hs1m0+3s3NxcUlNTKC8vp7v74rkG/ffr9Xppbm7m4MFDHD9+DCnBag1CUQxD6joLIcjKymLKlMm4XE6OHj3KwYMHaWxsJCws7AICtre309jYqJsODoeD2tpaOjo6mDFj+pBmh9vtpqWlmejo6CFbdZjN5gtyUQLw36deGhub2L17D3/84x/ZtOkD6uvr8Xq9l9Vn0Waz8aUvfYmCggK9WmXXrl2Dr0H1j8z8VEpZHxISxmhUQq8UPtOY7po1awLNFM3ACinlk8AMIBL/gnHY0JvFYmHNmjXcfffdpKWlIqXk7NmzPPPM7yguLr6kB9e/fcTs2bNZsGA+mZmZREREDDlSB47h8/no7OzUg0T9oaoqO3Z8QklJCSEhIfh8PjweD3fccTsJCQlDTvl+QrcQHh4+qgzEgG3c2dnJ+fPn2bt3H4cOHdLTQ8ejWagQgry8Sfz0pz8lJCSEgwcP8qMf/fiCXGYhxIfA/wLOgbyqZIbPmND9sXz5cgCzlEyVkgVCMAfIlVKmAjEMMXILIZgyZQpPPPEEkycXYDAYKCoq4plnnuHs2aLLOp9AQGDChAnMnz+fKVOm9Jk6oXojn7Hur6urC4PBMECq91Lh8Xjo7u6mu7uHlpZmTp06xb59+6msrBxTfd9oERQUxFNPPcXNN6+lq6uLZ599jo8++mhwpXapEOJpu92+JSEhnvfff39cz+FScPWzboCHHnqQtWvXiHXrXk3yen03gVwrJfPwJzVdMEenpqby1a9+lYULF2AwGDh58iS//e0zFBcXX3Z5VaD20GQykZqaSk5ODjk5/lZrUVFRREREYrOFjFndaaxwuVzY7b10dnbQ3t5OVVUVpaVllJaWUlNTo+dbjCeRA9dusVhYvHgR//RP/0RISAgnT57k//yf/zu4MZRPCPEfJpPy36oqHdu2XZlAyVhxTRC6P/w5FkRJyVopeRhYLKW8YB5OTEzk61//OjfeuBiAXbt28fvfP0t9ff24icwEJMaklLrKf0ZGRl8DzGjdRLDZbISGhuqBDKPROKCecaj9+nw+fD4fXq8Xp9NJT08Pdrudnp4eurq6aG1to6mpiYqKCqqqqnSvwuV2Eeh/TQHTJPCv1WolMTGJWbNu4KGHHiI+Pp6uri5+85vfsnXr1sGpn3tB/CNweMeOa4PMcA0SOoA+kyQbxONS8lUptcTB30lJSeGpp77J/PnzcblcrF+/nnXrXh5zIedoECBAgAxCCGw2G9HR0URHRxMVFaUnKflde582ETIa/UsDn8+L1+vF4/Hgdnv6/nXT3d1Ne3t7n9hLmx5E6k/gyyVxoCon4C2KiookLCycoCArZrMZRTEQFhZKTs5EZs68AavVitPpZMOGDfzlL38d7FFSQfzYYAj7kaY5vYWFlyc9MJ64ZgkNsHTpUkCzGgyWRzRN/RcpZdbgcy4oKODv//5b5ObmUl9fz+9//yyffPLJZyIFFiB5/z//dgj0QPTnbXxK6E8XbEJ3o/XvcTieZoSmaWiaJDIygokTJ5KRMYH09HQSExP1TrXBwcEXzCZSShoaGti8eTPvvvveUNooR4Tg28Duq70IHIxrWitrx44d3HTTKpcQPO9y0QH8X2AyfXa1lH49u/Xr3+Zb33qapKQk1qxZTXl5GbW1dVec1GMl32eVPx2YSTIyMrjhhhlMnjyZrKwsEhMTL0hz1TQNl8uF1+vF5XLR2tpKSUkJhw4d5ujRo0PNdj1C8J7RaDg42q5nnyWu6RG6P5YtWy6kZAXwc5A6qTVNIzIykieffJLbb79Nbyv2yiuv0tzcPCAnt7/N2L9B0OcJqqqSmprKsmVLmTVrFpmZmXoOSSBAU1ZWRk1NLU1NTfT09ODxeFBVFa/XQ3d3Dw0NDXR2dg5lr/uEYL0Q4ntA9dWIBF4M19XTXL58pUFKuVZK7Tn8HhABfoIWFBTwrW89TV5eHj09PRw/foLCwkI94chsNvfliNgwm814PB7dl+twOMZ9uv+sERAVX7lyBcuXryA3dyLBwcG6+/DgwUMcO3aU2tpa2tra6e7upre3t69KfKD5M8zC0wd8rCji+8CZa5HMcJ0R+o9//Clvvrnd6vF4/x7kj+kLxAR8yDfeeCNf/epXSE5ORlVV2tvbaW9vx+329OVumPTQtaZpfbocbrq6OqmsrOTMmbOcO3duTBoU1wI0TSMnJ4d7772HuXPnEhERgRCirxrlQ/bv309jYyPt7e0D3H1jeHl7heA1IZSfdXV1lXzpS4/zD//wD1f7sofEdUXoZctWIYQZKZ3JIJ/vM0H0UdpsNjN16lQeeOB+pk+fPmqbVUrZ5/e1093dQ1VVJcePH2ffvv20t7ePukPu1cK8efN4+GG/bECgguaTT3ayceMGzp+v0HXkxjj7SPyjcpEQyv+AthFovtYWgYNxXREaYMWKFQghDJoml0opX5VS6nmTUkqMRiNhYWEUFBQwc+ZM0tPTCAoKwuFw0NXVTU9PNyCIiAgnIiKCiIjIvtV+kJ5s5PP5cDqdtLS0sGPHJ2zdupXW1lZ8Pt+4hJXHCwaDgVWrVvLII4+SlOT3ap49e5Y333yLU6dO0dnZOVKtpsQvhyz7/QW220EcFoK3jUbjNlWV9VLiKizccrUv+aK47gh9880343A4MBqNIaqqfV1K+R/AgJzLALEtFovukgqs/AOjbYC8iqL0JeBnMX36dKZOnap7AwK6Fm1t7RQWFvLhhx/S3Nw8qtTVATdZiL6sPgVFGdhq2Wg04POpqKo6wNft8/lGVHQyGAwsW7aMr3zlSRISEvB4PGzatIn169+moaFhuFlFAh78ilaVQohjQlAipWgG6QLpEEJ0gKjUNNmjKPQC7mvVXh7yXl/tE7gUrFixApfLjdlsigLxTeC7Usrwy9lnoBl9IOS9fPlyFi5cQHR0NCaTCa/XS21tHa+88gr79u0bURhcSomiKFgsFiwWC/Hx8WRnZ5OenkZqaqqe92y1WlEUAz6fl+7uHrq6Ounq6qapqZHTp89QXFyseyECs4PBYCAoKIgFCxbwpS89TmJiIna7nVdffZWNGzcNDk/rpwTYFUU5LyXvgNhkMIhSVVW9QqCCokmpIQRSCKEFhDYvtRPV1cR1SWiAZcuW4U/Ss4eCep+U2vfwFw9cdpJFYERNTk5i5cqV3HjjjcTHx2OxWOjp6eGjjz7i9dffoK2tbYAJEpgZ/GHyNGbOnMWsWTPJzMzUU1P755r0jzoO3h5Inz1z5gwnT56kqqoal8tJUlIy8+bNZfbs2QQHB2O323nllVd57733hnrJJNCrKEqZlPwhKMjyusPh7lEUg/ryy/+l/cu//JwXXnjxaj/KccV1S2iAZctWs3RpAZWV3UptbfUUn8/3tJQsA+IAG+MgRqkoCgkJCdx77z0sXLiQuLg4PB4PBw4c4I033qCpqRmPx6P3EsnImMCKFSuYP3++Xpeoqiq9vb04nU7cbjculwuHw4nT6cDj8WCxWPrC5laMRgNWqxWbzTYghbV/27pAiVl7ezvvvPMu77333lAVJCpQBuJNs9n4B1XV6sLCQjUpJe++++7VfnRXDNc1ofvj08WiNkVKeYuUzAUSAEvfdXoBN34bUuCPktrwyyuECyFCpZTDRk4NBgOLFy/ioYceIjs7G0VR+moWi2lsbMTnU8nImEBubq7u/21vb6e1tY3q6iqKioqorq6hrq6OlpaWC+xwIQRWq5XQ0FBSUlIoKMgnPz+f+Ph4wsPDCQ4ORlEUPB4Pdrud2tpaPv74Y3bv3jOUor5TCPGJEOLfheAwoF4r2XBXGp8bQvfHU099k/DwcOXQocPRqkqsEFIIQY/Vau0wGBR7ZmamLC0tC3I6HelSiokgJgpBnpQyX0qZA0QNdW+EEEycOJFHH32UqVOnDNm+ISClUFJSwr59+zl27BhNTU1jik4GFocGg4H09HS9nYfRaKSzs5OKigqKioro6hpSPsAlBK8LIf6PxWKu9nq9bN36t0Fm+JwSeqy48847yM5OFceOFWdrmnqTlCwGORN/mdiAUVtKSXR0FCtWrGTKlMlER0cTFBSkF/tWV1dz8OBBDh8+ogu4jFe6J3CxJCYXiNeEEP/mcnnqwsKCL7sJz/WGLwg9CMuWrQZEFHhvBHmPlNwKRPT/ToBkoaGhJCcnExoaiqqqtLW1Ul/fgMfjGU7X7UqiQwjxuqLwnx6PWhMZGcz77394tW/nZ44vCD0M/O0aSFRV7X4p5dP4lZ8GzO+D00YHeyuGgAa0AU19fz19+zSBMIK04bf7k+lXFX8R+ICTQohXhBDrPB5P065dO6/bnJTLxd/mVY8SX/7y4zidTmNLS/taTZP/AHIpY0+59QFHhBAHheCcpskWIUSrELIFRK+UUvGTWTFKKYOF0GKBdBDTQc7q0zIZitxtQnAU2AViq6JwAnBs23b9BEGuBL4g9CiwbNkKBZgK2r1Scj+QzcXvnUsIsRN4F+Qhg0EpF0J0btmy9aKx877ZIVZVtUwgE0iWkmghpAI4pKQRqFMUcV4IKvmCyDq+IPQosGrVSoQQQlW1UE3TpgghZknJQinJF4JUKaUNvznRKYSoBI4KIXYAR6WkHPBdiqj3Aw/ch8Gg4HB4TN3dvUFCqEIIvHl5qY7Ozl5eeunNq31rrjl8Qegx4IEH7mPChFROnSqyuFzuOE0jQghCAJOUUgohPIBdUUSboog2KfFdj+HjL/AFvsAX+AJf4At8gS8wIv7/6zl/8B68UtcAAAAldEVYdGRhdGU6Y3JlYXRlADIwMTktMDYtMTJUMTc6MzY6MTYrMDg6MDBXhhQfAAAAJXRFWHRkYXRlOm1vZGlmeQAyMDE5LTA2LTEyVDE3OjM2OjE2KzA4OjAwJtusowAAACB0RVh0c29mdHdhcmUAaHR0cHM6Ly9pbWFnZW1hZ2ljay5vcme8zx2dAAAAGHRFWHRUaHVtYjo6RG9jdW1lbnQ6OlBhZ2VzADGn/7svAAAAGHRFWHRUaHVtYjo6SW1hZ2U6OkhlaWdodAAxOTJAXXFVAAAAF3RFWHRUaHVtYjo6SW1hZ2U6OldpZHRoADE5MtOsIQgAAAAZdEVYdFRodW1iOjpNaW1ldHlwZQBpbWFnZS9wbmc/slZOAAAAF3RFWHRUaHVtYjo6TVRpbWUAMTU2MDMzMjE3NjEw0xEAAAATdEVYdFRodW1iOjpTaXplADI2MzU5QkKNBywGAAAARnRFWHRUaHVtYjo6VVJJAGZpbGU6Ly8vYXBwL3RtcC9pbWFnZWxjL2ltZ3ZpZXcyXzdfMTU2MDMwODk0OTQ3ODU5NzJfNTVfWzBda/R3sgAAAABJRU5ErkJggg==;" parent="165" vertex="1">
          <mxGeometry x="388" y="36" width="59" height="59" as="geometry"/>
        </mxCell>
        <mxCell id="jwJYsDW_ZjVP34EogjR1-197" value="&lt;font style=&quot;font-size: 18px&quot;&gt;TICKTICK: 国际版, j.sui@qq.com&lt;br&gt;TODOIST: suijh@foxmail.com&lt;br&gt;DYNALIST: suijh@foxmail.com&lt;br&gt;NOTION: jsui@outlook.com&lt;br&gt;EVERNOTE: 国际版 suijh@foxmail.com&lt;br&gt;GITBOOK: Github login&lt;br&gt;时间戳笔记：j.sui@qq.com&lt;br&gt;百度网盘：jsui@outlook.com&lt;br&gt;ONEDRIVE: jsui@outlook.com&lt;br&gt;&lt;/font&gt;" style="text;html=1;resizable=0;points=[];autosize=1;align=left;verticalAlign=top;spacingTop=-4;" vertex="1" parent="98">
          <mxGeometry x="23" y="429" width="330" height="150" as="geometry"/>
        </mxCell>
        <mxCell id="jwJYsDW_ZjVP34EogjR1-201" value="&lt;font style=&quot;font-size: 20px&quot;&gt;ANKI: jsui@outlook.com&lt;br&gt;QUIZLET: GOOGLE(jsui2020)&lt;br&gt;Lynda:&amp;nbsp;&lt;span style=&quot;font-size: 18px&quot;&gt;jsui@outlook.com&lt;/span&gt;&lt;br&gt;&lt;/font&gt;" style="text;html=1;resizable=0;points=[];autosize=1;align=left;verticalAlign=top;spacingTop=-4;" vertex="1" parent="98">
          <mxGeometry x="463" y="489" width="280" height="50" as="geometry"/>
        </mxCell>
        <mxCell id="102" value="Architecture" style="text;html=1;align=left;verticalAlign=middle;fontColor=#4277BB;shadow=0;dashed=0;strokeColor=none;fillColor=none;labelBackgroundColor=none;fontStyle=1;fontSize=16;spacingLeft=5;" parent="63" vertex="1">
          <mxGeometry x="8" y="10" width="150" height="20" as="geometry"/>
        </mxCell>
        <mxCell id="189" style="edgeStyle=orthogonalEdgeStyle;rounded=0;html=1;labelBackgroundColor=#ffffff;startArrow=classic;startFill=1;startSize=4;endSize=4;jettySize=auto;orthogonalLoop=1;strokeColor=#4277BB;strokeWidth=2;fontSize=12;fontColor=#4277BB;" parent="63" target="119" edge="1">
          <mxGeometry relative="1" as="geometry">
            <mxPoint x="279" y="191" as="sourcePoint"/>
            <Array as="points"/>
          </mxGeometry>
        </mxCell>
        <mxCell id="188" style="edgeStyle=orthogonalEdgeStyle;rounded=0;html=1;labelBackgroundColor=#ffffff;startArrow=classic;startFill=1;startSize=4;endSize=4;jettySize=auto;orthogonalLoop=1;strokeColor=#4277BB;strokeWidth=2;fontSize=12;fontColor=#4277BB;entryX=1;entryY=0.5;entryDx=0;entryDy=0;" parent="63" source="119" target="9f43Xtq0IxD5UAQ7lQIS-222" edge="1">
          <mxGeometry relative="1" as="geometry">
            <mxPoint x="105" y="191" as="targetPoint"/>
          </mxGeometry>
        </mxCell>
        <mxCell id="119" value="" style="aspect=fixed;perimeter=ellipsePerimeter;html=1;align=center;shadow=0;image;image=img/lib/ibm/infrastructure/edge_services.svg;labelBackgroundColor=none;strokeColor=none;strokeWidth=2;fillColor=#808080;gradientColor=none;fontSize=12;fontColor=#4277BB;rounded=0;verticalAlign=top;spacingLeft=5;" parent="63" vertex="1">
          <mxGeometry x="173" y="161" width="60" height="60" as="geometry"/>
        </mxCell>
        <mxCell id="174" value="" style="swimlane;shadow=1;labelBackgroundColor=#007FFF;strokeColor=#4277BB;fillColor=none;gradientColor=none;fontColor=#000000;align=right;collapsible=0;startSize=0;strokeWidth=3;" parent="63" vertex="1">
          <mxGeometry x="290" y="23" width="365" height="188" as="geometry"/>
        </mxCell>
        <mxCell id="183" value="指令中心" style="text;html=1;align=left;verticalAlign=middle;fontColor=#4277BB;shadow=0;dashed=0;strokeColor=none;fillColor=none;labelBackgroundColor=none;fontStyle=1;fontSize=14;spacingLeft=5;" parent="174" vertex="1">
          <mxGeometry x="9" y="7" width="150" height="20" as="geometry"/>
        </mxCell>
        <object label="" id="9f43Xtq0IxD5UAQ7lQIS-200">
          <mxCell style="shape=image;imageAspect=0;aspect=fixed;verticalLabelPosition=bottom;verticalAlign=top;image=https://is3-ssl.mzstatic.com/image/thumb/Purple123/v4/21/35/12/213512d4-9ec9-ea8c-ab97-105c03fa2ddc/AppIcon-0-85-220-0-4-2x.png/320x0w.png;" parent="174" vertex="1">
            <mxGeometry x="55" y="40" width="74" height="74" as="geometry"/>
          </mxCell>
        </object>
        <mxCell id="9f43Xtq0IxD5UAQ7lQIS-204" value="" style="shape=image;imageAspect=0;aspect=fixed;verticalLabelPosition=bottom;verticalAlign=top;image=https://www.mackaid.com/wp-content/uploads/2018/10/icon1_todoist.png;" parent="174" vertex="1">
          <mxGeometry x="190" y="47" width="65" height="65" as="geometry"/>
        </mxCell>
        <mxCell id="9f43Xtq0IxD5UAQ7lQIS-206" value="" style="shape=image;imageAspect=0;aspect=fixed;verticalLabelPosition=bottom;verticalAlign=top;image=https://nerdenterprises.com/wp-content/uploads/2017/10/Dynalist-Logo.jpg;" parent="174" vertex="1">
          <mxGeometry x="284.5" y="88.5" width="31" height="31" as="geometry"/>
        </mxCell>
        <mxCell id="9f43Xtq0IxD5UAQ7lQIS-209" value="TICKTICK" style="text;html=1;resizable=0;autosize=1;align=center;verticalAlign=middle;points=[];fillColor=none;strokeColor=none;rounded=0;fontFamily=Verdana;fontStyle=1;fontColor=#004C99;fontSize=14;" parent="174" vertex="1">
          <mxGeometry x="57" y="119.5" width="70" height="20" as="geometry"/>
        </mxCell>
        <mxCell id="9f43Xtq0IxD5UAQ7lQIS-212" value="TODOIST" style="text;html=1;resizable=0;autosize=1;align=center;verticalAlign=middle;points=[];fillColor=none;strokeColor=none;rounded=0;fontFamily=Verdana;fontStyle=1;fontColor=#004C99;fontSize=14;" parent="174" vertex="1">
          <mxGeometry x="182.5" y="119" width="80" height="20" as="geometry"/>
        </mxCell>
        <mxCell id="9f43Xtq0IxD5UAQ7lQIS-213" style="edgeStyle=none;rounded=0;html=1;labelBackgroundColor=#ffffff;startArrow=none;startFill=0;startSize=4;endArrow=none;endFill=0;endSize=4;jettySize=auto;orthogonalLoop=1;strokeColor=#4277BB;strokeWidth=2;fontSize=12;fontColor=#4277BB;" parent="174" source="9f43Xtq0IxD5UAQ7lQIS-204" target="9f43Xtq0IxD5UAQ7lQIS-206" edge="1">
          <mxGeometry relative="1" as="geometry">
            <mxPoint x="113.52957659949152" y="-346.5230750321582" as="sourcePoint"/>
            <mxPoint x="194.48497495361335" y="-307.5072342815936" as="targetPoint"/>
          </mxGeometry>
        </mxCell>
        <mxCell id="9f43Xtq0IxD5UAQ7lQIS-210" value="Dynalist" style="text;html=1;resizable=0;autosize=1;align=center;verticalAlign=middle;points=[];fillColor=none;strokeColor=none;rounded=0;fontFamily=Verdana;fontStyle=1;fontColor=#004C99;fontSize=12;" parent="174" vertex="1">
          <mxGeometry x="270" y="119" width="60" height="20" as="geometry"/>
        </mxCell>
        <mxCell id="185" style="edgeStyle=orthogonalEdgeStyle;rounded=0;html=1;exitX=0.75;exitY=0;entryX=0.75;entryY=0;labelBackgroundColor=#ffffff;startArrow=classic;startFill=1;startSize=4;endSize=4;jettySize=auto;orthogonalLoop=1;strokeColor=#EDC11C;strokeWidth=2;fontSize=12;fontColor=#4277BB;" parent="63" edge="1">
          <mxGeometry relative="1" as="geometry">
            <mxPoint x="96" y="164" as="sourcePoint"/>
            <mxPoint x="96" y="164" as="targetPoint"/>
          </mxGeometry>
        </mxCell>
        <mxCell id="197" style="edgeStyle=none;rounded=0;html=1;entryX=0;entryY=0.5;labelBackgroundColor=#ffffff;startArrow=none;startFill=0;startSize=4;endArrow=none;endFill=0;endSize=4;jettySize=auto;orthogonalLoop=1;strokeColor=#4277BB;strokeWidth=2;fontSize=12;fontColor=#4277BB;" parent="63" source="195" target="196" edge="1">
          <mxGeometry relative="1" as="geometry"/>
        </mxCell>
        <mxCell id="195" value="" style="shape=partialRectangle;whiteSpace=wrap;html=1;left=0;right=1;top=1;bottom=1;fillColor=none;routingCenterX=-0.5;shadow=0;labelBackgroundColor=#ffffff;strokeColor=#4277BB;strokeWidth=2;fontSize=12;fontColor=#4277BB;align=center;" parent="63" vertex="1">
          <mxGeometry x="649.5" y="18" width="20" height="203" as="geometry"/>
        </mxCell>
        <mxCell id="196" value="" style="shape=partialRectangle;whiteSpace=wrap;html=1;left=1;right=0;top=1;bottom=1;fillColor=none;routingCenterX=-0.5;shadow=0;labelBackgroundColor=#ffffff;strokeColor=#4277BB;strokeWidth=2;fontSize=12;fontColor=#4277BB;align=center;" parent="63" vertex="1">
          <mxGeometry x="702.5" y="38" width="21" height="163" as="geometry"/>
        </mxCell>
        <mxCell id="9f43Xtq0IxD5UAQ7lQIS-222" value="" style="shape=image;imageAspect=0;aspect=fixed;verticalLabelPosition=bottom;verticalAlign=top;shadow=1;fontFamily=Verdana;fontSize=14;fontColor=#004C99;image=https://icons-for-free.com/iconfiles/png/512/male+user+icon-1320184266699447135.png;" parent="63" vertex="1">
          <mxGeometry x="53" y="160.5" width="60" height="60" as="geometry"/>
        </mxCell>
        <mxCell id="9f43Xtq0IxD5UAQ7lQIS-224" value="Devices" style="text;html=1;resizable=0;autosize=1;align=center;verticalAlign=middle;points=[];fillColor=none;strokeColor=none;rounded=0;fontFamily=Verdana;fontStyle=1;fontColor=#004C99;fontSize=14;" parent="63" vertex="1">
          <mxGeometry x="167" y="227" width="70" height="20" as="geometry"/>
        </mxCell>
        <mxCell id="9f43Xtq0IxD5UAQ7lQIS-223" value="JUNHAN&amp;nbsp;SUI" style="text;html=1;resizable=0;autosize=1;align=center;verticalAlign=middle;points=[];fillColor=none;strokeColor=none;rounded=0;fontFamily=Verdana;fontStyle=1;fontColor=#004C99;fontSize=12;" parent="63" vertex="1">
          <mxGeometry x="33" y="228" width="100" height="20" as="geometry"/>
        </mxCell>
        <mxCell id="9f43Xtq0IxD5UAQ7lQIS-240" style="edgeStyle=orthogonalEdgeStyle;rounded=0;html=1;labelBackgroundColor=#ffffff;startArrow=classic;startFill=1;startSize=4;endSize=4;jettySize=auto;orthogonalLoop=1;strokeColor=#4277BB;strokeWidth=2;fontSize=12;fontColor=#4277BB;exitX=0.5;exitY=1;exitDx=0;exitDy=0;" parent="63" edge="1">
          <mxGeometry relative="1" as="geometry">
            <mxPoint x="911.4000000000001" y="193.79999999999995" as="sourcePoint"/>
            <Array as="points">
              <mxPoint x="911" y="210"/>
              <mxPoint x="915" y="210"/>
              <mxPoint x="915" y="229"/>
            </Array>
            <mxPoint x="915" y="229" as="targetPoint"/>
          </mxGeometry>
        </mxCell>
      </root>
    </mxGraphModel>
  </diagram>
</mxfile>
